<?xml version="1.0" standalone="no"?>
<!DOCTYPE svg PUBLIC "-//W3C//DTD SVG 20010904//EN"
 "http://www.w3.org/TR/2001/REC-SVG-20010904/DTD/svg10.dtd">
<svg version="1.0" xmlns="http://www.w3.org/2000/svg"
 width="3000.000000pt" height="3000.000000pt" viewBox="0 0 3000.000000 3000.000000"
 preserveAspectRatio="xMidYMid meet">
<metadata>
Created by potrace 1.11, written by Peter Selinger 2001-2013
</metadata>
<g transform="translate(0.000000,3000.000000) scale(0.100000,-0.100000)"
fill="#000000" stroke="none">
<path d="M18283 28967 c-12 -28 -25 -68 -28 -87 -7 -39 -44 -138 -81 -217 -13
-28 -24 -55 -24 -58 0 -4 -6 -21 -14 -38 -8 -18 -21 -59 -29 -92 -14 -55 -43
-132 -95 -246 -11 -25 -26 -67 -32 -95 -13 -55 -40 -134 -50 -149 -4 -5 -17
-37 -29 -70 -13 -33 -26 -64 -30 -70 -4 -5 -13 -28 -19 -50 -35 -118 -57 -185
-78 -230 -45 -100 -72 -175 -89 -242 -9 -37 -23 -79 -31 -93 -23 -43 -73 -172
-98 -255 -22 -72 -40 -123 -66 -180 -32 -72 -52 -124 -60 -155 -12 -50 -62
-189 -95 -265 -23 -52 -63 -167 -74 -210 -8 -29 -66 -175 -97 -242 -7 -17 -14
-36 -14 -42 0 -18 -46 -151 -80 -231 -18 -41 -41 -102 -52 -135 -10 -33 -26
-74 -34 -92 -8 -17 -14 -37 -14 -45 0 -7 -20 -62 -44 -123 -24 -60 -49 -126
-55 -145 -36 -103 -45 -128 -59 -165 -8 -22 -21 -55 -29 -74 -21 -48 -83 -220
-92 -256 -5 -16 -27 -75 -49 -129 -23 -55 -42 -106 -42 -115 0 -9 -7 -29 -15
-45 -8 -16 -23 -54 -32 -85 -8 -31 -20 -63 -24 -71 -17 -31 -59 -140 -59 -153
0 -13 -10 -39 -50 -132 -5 -11 -11 -32 -14 -48 -4 -15 -17 -51 -30 -80 -13
-28 -29 -70 -36 -92 -7 -22 -28 -77 -46 -122 -19 -45 -34 -88 -34 -96 0 -15
-16 -56 -51 -134 -10 -23 -19 -49 -19 -57 0 -8 -16 -51 -35 -96 -46 -107 -46
-120 3 -121 20 0 45 -2 55 -4 10 -2 46 -6 80 -10 53 -5 107 -12 222 -29 11 -2
40 -6 65 -10 25 -4 68 -11 95 -16 28 -5 73 -11 100 -14 28 -2 70 -9 95 -15 67
-15 96 -21 190 -36 47 -8 130 -27 185 -41 55 -15 123 -31 150 -36 55 -11 177
-45 213 -59 13 -5 33 -9 45 -9 12 0 67 -16 122 -35 55 -19 108 -35 118 -35 9
0 56 -15 102 -34 47 -18 85 -31 86 -27 6 35 16 267 24 541 2 96 7 267 10 380
4 113 8 241 10 285 2 44 6 148 9 230 4 83 8 191 11 240 6 125 13 346 20 645 4
140 8 275 10 300 1 25 6 126 10 225 10 246 17 421 30 715 2 47 7 159 10 250 4
91 8 197 10 235 2 39 6 167 9 285 4 118 9 289 11 380 9 285 15 468 20 680 6
219 12 382 19 521 3 48 8 169 11 270 4 101 8 190 10 197 3 6 1 12 -3 12 -4 0
-17 -24 -29 -53z"/>
<path d="M10942 28517 c10 -56 20 -120 23 -142 3 -22 8 -51 11 -65 17 -78 34
-203 34 -256 0 -33 12 -127 26 -210 14 -82 27 -162 30 -179 7 -51 11 -77 27
-170 9 -49 18 -106 21 -125 3 -19 15 -87 26 -150 11 -63 20 -144 20 -180 0
-55 8 -115 35 -270 3 -14 12 -65 20 -115 8 -49 17 -101 19 -115 3 -14 14 -81
25 -150 12 -69 23 -136 26 -150 3 -14 7 -54 11 -90 3 -36 8 -78 10 -95 3 -16
9 -68 14 -115 11 -104 16 -137 35 -240 3 -14 7 -41 10 -60 3 -19 7 -46 10 -60
3 -14 7 -38 9 -55 9 -50 37 -218 42 -245 2 -14 7 -52 10 -85 3 -33 10 -89 15
-125 6 -36 14 -101 19 -145 5 -44 18 -136 30 -205 25 -149 49 -292 56 -339 3
-18 8 -43 10 -55 2 -11 9 -66 15 -121 5 -55 12 -111 15 -125 17 -92 33 -204
38 -255 2 -33 12 -100 21 -150 9 -49 18 -101 20 -115 2 -14 11 -68 20 -120 9
-52 21 -135 26 -185 9 -100 15 -138 29 -205 11 -48 16 -83 25 -170 11 -101 14
-128 19 -152 3 -12 7 -36 10 -53 2 -16 12 -75 21 -130 9 -55 18 -109 20 -120
20 -142 19 -140 61 -115 20 11 45 20 57 20 13 0 82 29 155 65 73 36 147 68
165 71 32 6 134 42 152 55 6 4 51 23 100 43 50 20 98 41 107 46 10 6 31 10 47
10 16 0 73 16 127 36 208 75 294 102 343 109 28 4 90 18 138 32 241 67 346 93
445 108 l38 6 -111 222 c-61 122 -123 247 -137 277 -15 30 -33 59 -39 63 -7 4
-13 15 -13 24 0 19 -109 242 -127 261 -7 7 -13 19 -13 25 0 10 -76 165 -135
277 -7 14 -36 72 -64 130 -28 58 -60 121 -70 140 -10 19 -44 87 -76 150 -31
63 -65 131 -75 150 -10 19 -41 82 -69 140 -28 58 -62 125 -75 150 -28 53 -66
134 -66 143 0 4 -22 44 -50 90 -27 46 -50 90 -50 97 0 17 -79 173 -113 223
-14 21 -29 48 -32 60 -7 22 -32 82 -63 147 -9 19 -23 44 -32 55 -9 11 -24 40
-34 65 -10 25 -22 52 -27 60 -5 8 -12 22 -15 30 -22 55 -54 119 -66 131 -8 8
-33 59 -57 114 -23 55 -60 130 -82 166 -22 36 -54 102 -72 145 -18 43 -52 110
-75 148 -22 37 -53 98 -67 135 -14 36 -36 84 -50 106 -31 51 -98 186 -121 245
-10 25 -24 52 -31 61 -20 23 -70 125 -100 199 -14 36 -32 72 -39 81 -23 26
-91 163 -99 197 -3 17 -17 48 -31 67 -13 20 -36 60 -51 88 -14 29 -34 64 -44
79 -11 14 -19 37 -19 50 0 12 -11 41 -25 63 -13 22 -40 70 -59 107 -20 36 -40
69 -46 73 -5 3 -10 18 -10 33 0 15 -11 45 -25 67 -13 22 -40 70 -59 107 -20
36 -40 69 -45 72 -5 3 -12 24 -16 45 -5 30 -54 123 -77 146 -2 2 4 -42 14 -98z"/>
<path d="M14620 27422 c0 -6 -5 -46 -10 -89 -19 -146 -18 -130 -35 -359 -3
-39 -7 -88 -10 -110 -2 -21 -7 -83 -10 -137 -3 -54 -8 -105 -10 -115 -4 -21
-12 -87 -20 -167 -4 -33 -8 -71 -10 -85 -2 -14 -6 -47 -9 -75 -8 -70 -26 -223
-32 -270 -14 -115 -14 -117 -29 -310 -3 -39 -7 -81 -10 -95 -2 -14 -9 -92 -15
-175 -5 -82 -12 -160 -14 -173 -3 -13 -8 -49 -11 -80 -3 -31 -7 -68 -9 -82 -2
-14 -9 -71 -15 -127 -7 -56 -13 -110 -15 -120 -2 -11 -7 -53 -11 -94 -4 -40
-8 -76 -10 -79 -2 -3 -6 -45 -9 -95 -12 -163 -18 -236 -22 -258 -10 -56 -21
-173 -29 -316 -4 -52 -8 -97 -9 -100 -2 -3 -7 -37 -11 -76 -6 -68 -9 -90 -19
-165 -3 -19 -7 -62 -11 -95 -3 -33 -8 -69 -10 -80 -2 -11 -7 -58 -10 -105 -9
-146 -15 -215 -19 -236 -8 -38 -18 -174 -14 -174 3 0 79 11 171 24 168 25 231
32 392 41 50 2 124 7 165 10 129 10 228 13 453 14 l218 1 -7 22 c-4 12 -10 47
-14 78 -5 30 -11 66 -14 80 -10 42 -15 63 -27 110 -6 25 -12 50 -13 55 -2 6
-6 33 -10 60 -5 28 -23 114 -42 192 -19 79 -34 157 -34 174 0 16 -4 38 -10 48
-5 10 -11 31 -14 47 -3 16 -19 88 -35 159 -17 72 -42 189 -56 260 -15 72 -42
198 -61 280 -19 83 -37 159 -39 170 -3 11 -8 31 -11 45 -3 14 -10 50 -14 80
-12 74 -18 105 -30 135 -6 15 -10 40 -10 57 0 16 -7 58 -16 92 -16 62 -21 83
-30 123 -2 12 -8 33 -13 45 -5 13 -9 26 -9 31 0 4 -10 49 -21 100 -11 50 -27
135 -36 187 -13 74 -81 369 -121 525 -6 22 -20 110 -34 200 -5 33 -25 125 -45
205 -20 80 -38 152 -40 160 -2 8 -10 42 -19 76 -14 56 -25 114 -46 254 -10 67
-66 299 -74 307 -3 4 -6 1 -6 -5z"/>
<path d="M21115 26028 c-11 -13 -40 -51 -65 -86 -25 -35 -57 -78 -72 -95 -16
-17 -28 -36 -28 -42 0 -6 -19 -33 -42 -60 -42 -49 -108 -139 -108 -147 0 -3
-18 -24 -40 -48 -22 -24 -40 -49 -40 -55 0 -6 -12 -26 -27 -43 -16 -18 -46
-57 -68 -88 -22 -31 -52 -70 -66 -87 -14 -18 -33 -45 -42 -62 -9 -16 -30 -44
-46 -62 -17 -18 -31 -35 -31 -38 0 -6 -73 -106 -100 -136 -32 -37 -40 -49 -40
-59 0 -5 -8 -18 -17 -28 -10 -9 -43 -52 -73 -95 -30 -42 -70 -94 -87 -113 -18
-20 -33 -42 -33 -48 0 -6 -16 -28 -35 -48 -19 -20 -35 -39 -35 -42 0 -9 -72
-109 -98 -136 -13 -14 -32 -41 -43 -60 -10 -19 -31 -50 -46 -67 -15 -18 -44
-56 -63 -83 -19 -28 -45 -62 -58 -76 -12 -14 -29 -39 -38 -56 -9 -17 -28 -42
-42 -57 -15 -14 -34 -39 -42 -54 -8 -16 -25 -40 -37 -53 -13 -14 -23 -27 -23
-30 0 -3 -16 -24 -35 -47 -19 -22 -35 -45 -35 -51 0 -6 -16 -28 -35 -48 -19
-20 -35 -40 -35 -44 0 -4 -16 -26 -35 -50 -19 -23 -35 -47 -35 -53 0 -5 -6
-14 -14 -18 -13 -8 -77 -94 -140 -188 -18 -27 -40 -56 -49 -64 -10 -7 -17 -17
-17 -22 0 -4 -13 -23 -30 -41 -16 -18 -30 -36 -30 -40 0 -5 -19 -33 -42 -62
-48 -61 -76 -98 -98 -131 -18 -26 -105 -143 -126 -168 -7 -9 -14 -21 -14 -25
0 -4 -18 -27 -40 -52 -22 -25 -40 -51 -40 -57 0 -7 -3 -13 -7 -13 -5 0 -19
-17 -33 -38 -13 -20 -42 -59 -64 -86 -34 -41 -66 -90 -66 -101 0 -4 131 -65
140 -65 6 0 45 -16 87 -36 43 -20 110 -51 148 -68 94 -43 153 -71 195 -94 19
-10 71 -37 115 -59 137 -69 275 -144 281 -154 3 -5 11 -9 19 -9 7 0 41 -18 74
-40 33 -22 64 -40 70 -40 5 0 16 -7 25 -15 8 -8 35 -24 60 -35 46 -19 46 -19
46 1 0 11 6 32 14 47 8 15 17 46 21 67 4 22 13 54 20 70 45 111 75 194 75 208
0 9 11 45 24 79 12 35 26 81 30 103 4 22 11 44 14 50 13 19 53 136 97 280 31
100 52 162 85 248 13 32 26 75 31 95 4 20 19 69 32 107 27 76 69 202 85 250 5
17 22 66 37 110 15 44 31 98 37 120 5 22 12 47 15 55 4 8 15 38 25 65 10 28
27 79 38 115 18 65 44 141 107 319 18 52 33 102 33 113 0 10 9 37 19 61 17 37
39 103 54 162 3 11 17 52 32 90 14 39 30 89 35 112 5 24 19 63 30 88 11 24 27
72 36 105 8 34 22 76 29 94 8 19 24 69 35 112 12 43 26 84 31 90 5 7 11 20 14
30 2 11 13 46 24 79 40 119 69 211 81 260 7 28 17 55 21 61 5 6 20 46 34 90
14 43 37 114 51 157 29 86 28 109 -1 75z"/>
<path d="M24923 25673 c-26 -26 -66 -60 -88 -75 -22 -15 -69 -54 -104 -88 -36
-33 -69 -60 -74 -60 -5 0 -35 -25 -66 -56 -31 -31 -72 -67 -91 -80 -19 -12
-64 -50 -100 -83 -35 -34 -69 -61 -75 -61 -5 0 -39 -30 -75 -65 -35 -36 -72
-68 -82 -70 -9 -3 -49 -37 -89 -75 -40 -39 -78 -70 -83 -70 -6 0 -43 -32 -83
-70 -39 -39 -77 -70 -83 -70 -7 0 -46 -34 -88 -75 -41 -41 -80 -75 -86 -75 -6
0 -44 -32 -85 -70 -41 -39 -80 -70 -86 -70 -7 0 -26 -15 -43 -32 -61 -65 -109
-108 -120 -108 -6 0 -46 -34 -88 -75 -42 -41 -82 -75 -88 -75 -7 0 -44 -31
-83 -70 -40 -38 -78 -70 -85 -70 -7 0 -40 -27 -72 -61 -32 -33 -75 -71 -95
-84 -20 -13 -65 -51 -101 -84 -35 -34 -69 -61 -76 -61 -6 0 -22 -12 -36 -27
-37 -41 -96 -93 -158 -140 -31 -23 -65 -52 -76 -65 -28 -30 -62 -58 -72 -58
-5 0 -40 -31 -80 -70 -39 -38 -78 -70 -85 -70 -8 0 -38 -25 -67 -56 -29 -31
-70 -66 -89 -79 -20 -12 -57 -42 -82 -66 -63 -60 -98 -89 -107 -89 -5 0 -20
-12 -34 -27 -31 -35 -85 -83 -118 -106 -14 -9 -50 -39 -80 -66 -30 -28 -81
-70 -114 -95 -32 -25 -65 -54 -72 -65 -8 -10 -37 -35 -66 -54 -29 -19 -69 -53
-88 -74 -20 -21 -54 -51 -77 -66 -23 -16 -64 -51 -92 -78 -28 -27 -54 -49 -58
-49 -4 0 -30 -21 -58 -46 -27 -25 -70 -62 -95 -82 -25 -21 -47 -39 -50 -42 -3
-3 -36 -32 -75 -64 -38 -33 -74 -64 -80 -70 -5 -6 -30 -24 -54 -41 -24 -16
-45 -35 -48 -42 -3 -6 -30 -31 -61 -54 -32 -24 -76 -62 -100 -86 -23 -24 -45
-43 -48 -43 -9 0 -105 -80 -135 -112 -14 -15 -30 -28 -36 -28 -6 0 -16 -7 -23
-15 -10 -12 -7 -17 16 -27 16 -7 52 -32 80 -55 28 -24 54 -43 58 -43 9 0 66
-42 132 -97 28 -24 56 -43 63 -43 6 0 11 -3 11 -7 0 -5 16 -19 35 -32 19 -13
43 -31 54 -40 10 -9 43 -36 71 -61 29 -25 61 -49 70 -55 22 -13 137 -114 205
-180 28 -27 69 -62 91 -78 22 -15 53 -45 70 -67 16 -22 32 -40 35 -40 14 0 84
-63 110 -98 15 -20 48 -53 74 -72 25 -19 58 -54 73 -77 15 -24 32 -43 39 -43
7 0 17 -9 23 -20 6 -11 16 -20 23 -20 7 0 21 -15 31 -32 18 -31 133 -148 145
-148 3 0 12 13 19 30 7 16 45 76 83 133 38 57 69 110 69 116 0 7 18 35 39 64
22 29 49 70 61 92 11 22 26 49 33 60 56 92 76 122 88 135 8 8 26 38 39 65 13
28 47 84 74 125 69 103 75 113 82 130 15 38 28 59 55 91 17 19 45 63 62 99 18
35 38 71 45 80 26 29 81 115 112 176 17 33 38 69 48 80 28 31 72 102 72 117 0
7 9 19 20 27 11 8 20 20 20 27 0 16 47 92 69 113 9 8 29 42 45 75 16 33 37 69
46 80 23 28 111 172 132 215 9 19 28 49 43 65 15 17 34 46 42 65 14 32 49 89
144 233 21 32 41 68 45 80 4 12 19 36 34 53 15 17 37 53 50 80 13 27 32 55 42
62 10 7 18 20 18 28 0 16 45 88 73 116 9 10 17 23 17 28 0 6 32 60 70 121 39
60 70 114 70 119 0 6 4 10 8 10 5 0 23 29 40 64 17 36 37 68 45 73 16 10 47
59 47 74 0 6 13 29 28 52 16 23 40 60 54 82 14 22 41 65 61 96 20 31 42 69 49
85 7 16 22 40 35 52 12 13 32 45 44 70 12 26 33 58 46 71 13 13 23 31 23 40 0
9 18 40 40 69 22 29 40 55 40 59 0 4 32 57 70 118 39 61 70 116 70 122 0 6 6
13 13 16 8 3 28 35 45 71 17 36 36 66 42 66 6 0 21 21 32 48 11 26 33 65 48
87 54 80 150 234 157 252 3 10 18 31 31 48 14 16 33 48 43 70 9 22 31 56 48
75 17 19 31 41 31 49 0 8 10 28 23 45 12 17 40 60 62 96 21 36 42 67 47 68 4
2 8 8 8 13 0 5 14 31 31 59 17 28 29 53 26 56 -3 3 -27 -16 -54 -43z"/>
<path d="M8570 25454 c0 -5 6 -18 13 -29 8 -11 20 -42 27 -70 8 -27 26 -76 42
-107 15 -31 28 -61 28 -66 0 -5 9 -20 20 -34 10 -14 33 -67 50 -118 17 -51 48
-127 69 -169 48 -94 66 -135 82 -186 6 -22 29 -76 50 -121 22 -44 39 -85 39
-90 0 -5 9 -20 20 -34 11 -14 20 -37 20 -52 0 -15 4 -29 9 -32 5 -3 12 -18 16
-33 3 -15 31 -78 61 -140 30 -62 54 -119 54 -127 0 -9 9 -30 20 -48 11 -18 20
-39 20 -47 0 -7 23 -60 50 -117 28 -57 50 -107 50 -112 0 -5 9 -27 20 -50 11
-22 20 -46 20 -51 0 -6 23 -57 50 -114 28 -57 50 -109 50 -116 0 -6 11 -34 25
-61 14 -27 25 -54 25 -60 0 -7 16 -44 36 -83 38 -74 88 -189 105 -242 6 -16
21 -52 34 -80 38 -82 60 -134 105 -245 23 -58 55 -131 71 -162 16 -32 29 -63
29 -70 0 -7 13 -38 30 -68 16 -30 29 -63 30 -74 0 -10 16 -47 35 -82 19 -35
38 -79 44 -97 5 -17 37 -95 71 -172 33 -77 73 -169 87 -205 14 -36 32 -72 39
-81 8 -8 14 -24 14 -34 0 -9 18 -53 40 -97 22 -44 40 -88 40 -97 0 -9 4 -22 9
-30 7 -11 24 -1 78 47 39 34 73 62 77 62 9 0 88 54 108 73 22 21 79 61 119 82
21 11 71 45 111 76 40 31 84 60 96 64 22 6 41 18 149 94 22 16 61 38 86 49 25
11 72 38 104 60 84 57 131 82 153 82 10 0 22 5 25 10 4 6 24 19 46 30 21 11
39 25 39 30 0 5 -32 42 -71 82 -39 40 -77 85 -85 100 -7 15 -23 29 -34 33 -11
3 -20 11 -20 17 0 6 -18 30 -40 54 -22 24 -40 48 -40 53 0 5 -9 13 -20 16 -11
4 -27 19 -34 34 -8 14 -37 50 -65 79 -28 28 -69 76 -92 107 -22 30 -49 57 -60
60 -10 4 -19 11 -19 17 0 10 -49 73 -85 108 -32 32 -45 47 -79 90 -41 52 -44
55 -72 78 -11 9 -33 35 -49 57 -16 22 -56 67 -87 99 -32 33 -58 64 -58 68 0 7
-45 57 -157 176 -18 19 -33 37 -33 41 0 4 -30 38 -66 76 -36 39 -75 84 -87
100 -28 40 -74 85 -87 85 -5 0 -10 5 -10 11 0 17 -84 121 -106 130 -14 6 -74
86 -74 99 0 6 -15 19 -32 30 -18 11 -51 46 -73 79 -22 33 -43 61 -47 61 -10 0
-98 94 -98 105 0 6 -25 35 -56 65 -31 30 -63 67 -72 83 -9 15 -24 30 -34 33
-10 3 -18 11 -18 17 0 7 -24 37 -53 67 -28 31 -76 86 -105 123 -30 37 -57 67
-62 67 -5 0 -25 24 -46 53 -35 49 -74 90 -100 105 -6 4 -28 33 -48 65 -20 31
-40 57 -45 57 -13 0 -81 73 -81 87 0 7 -4 13 -10 13 -5 0 -10 6 -10 14 0 8
-12 22 -27 31 -16 9 -44 37 -63 63 -19 25 -63 75 -97 111 -34 36 -76 84 -93
106 -40 50 -40 50 -40 39z"/>
<path d="M4670 24574 c14 -16 42 -46 62 -69 21 -22 38 -46 38 -52 0 -7 5 -13
10 -13 6 0 10 -6 10 -12 0 -7 25 -40 55 -73 31 -33 63 -73 71 -88 15 -29 43
-64 79 -102 34 -36 85 -102 85 -111 0 -5 27 -38 60 -74 33 -35 60 -68 60 -73
0 -11 46 -71 89 -116 18 -20 48 -58 66 -86 18 -27 54 -72 79 -99 25 -27 46
-53 46 -58 0 -5 4 -14 10 -21 83 -101 141 -174 168 -210 18 -24 45 -58 61 -75
17 -17 42 -50 58 -74 23 -36 103 -138 158 -200 8 -10 15 -22 15 -26 0 -5 13
-21 28 -38 25 -26 64 -75 135 -169 12 -16 30 -37 39 -46 9 -10 25 -30 35 -46
10 -15 24 -34 31 -43 21 -24 115 -145 137 -176 27 -37 67 -87 81 -99 7 -5 36
-44 67 -85 30 -41 66 -88 81 -103 14 -15 33 -42 42 -58 8 -17 22 -33 30 -36 7
-3 14 -11 14 -18 0 -7 7 -19 17 -26 9 -8 49 -58 89 -111 41 -53 85 -109 99
-124 14 -15 25 -31 25 -35 0 -5 9 -16 19 -26 11 -10 30 -33 43 -50 60 -83 145
-192 177 -229 20 -23 68 -83 106 -133 39 -50 73 -91 78 -91 4 0 7 -6 7 -13 0
-12 10 -26 81 -111 15 -17 59 -74 98 -126 40 -52 79 -99 87 -103 8 -4 14 -14
14 -21 0 -7 12 -26 28 -42 15 -16 34 -39 42 -50 49 -71 125 -164 136 -168 8
-3 14 -12 14 -21 0 -8 13 -28 30 -43 16 -16 30 -34 30 -39 0 -5 9 -18 20 -28
11 -10 41 -47 66 -81 26 -35 51 -64 56 -64 4 0 8 -6 8 -13 0 -7 15 -28 32 -47
34 -36 60 -69 102 -130 13 -19 38 -50 55 -68 17 -18 31 -36 31 -40 0 -4 14
-22 30 -40 17 -18 30 -37 30 -41 0 -4 9 -16 20 -26 11 -10 59 -69 106 -131 48
-63 91 -114 95 -114 5 0 9 -5 9 -12 0 -7 12 -25 27 -40 l27 -28 43 47 c23 27
43 53 43 58 0 6 14 25 30 43 17 18 30 36 30 39 0 3 18 25 40 50 22 25 40 52
40 59 0 8 4 14 9 14 4 0 43 45 85 100 42 55 81 100 86 100 5 0 11 9 15 19 3
11 24 37 45 59 22 22 40 42 40 45 0 3 15 21 33 40 17 19 55 60 82 90 162 177
224 243 254 271 19 17 55 53 80 80 25 27 55 56 66 65 11 9 49 44 85 78 138
132 229 213 239 213 22 0 10 21 -16 31 -16 6 -37 18 -48 28 -27 25 -153 111
-162 111 -5 0 -110 76 -123 90 -3 3 -16 11 -30 18 -36 17 -89 52 -141 90 -24
18 -79 56 -123 85 -43 29 -122 81 -176 117 -53 36 -132 88 -174 115 -43 28
-110 73 -149 102 -40 29 -88 60 -107 70 -19 10 -37 20 -40 23 -20 20 -119 90
-127 90 -6 0 -16 7 -23 15 -7 9 -27 22 -45 31 -18 8 -50 30 -71 48 -22 18 -66
48 -99 67 -33 18 -65 38 -71 44 -22 21 -77 60 -104 75 -47 26 -165 107 -179
124 -7 9 -21 16 -31 16 -10 0 -20 6 -23 13 -3 8 -22 22 -42 31 -20 10 -46 25
-57 34 -11 10 -32 27 -46 39 -15 13 -32 23 -39 23 -6 0 -25 11 -41 25 -17 14
-33 25 -37 25 -4 0 -34 20 -66 45 -33 25 -62 45 -65 45 -3 0 -20 11 -38 25
-18 14 -37 25 -42 25 -5 0 -27 16 -49 35 -22 20 -59 45 -82 56 -23 12 -47 27
-54 35 -6 8 -15 14 -20 14 -5 0 -35 20 -68 45 -32 25 -62 45 -66 45 -4 0 -20
11 -37 25 -16 14 -35 25 -41 25 -11 0 -57 36 -98 75 -9 8 -19 15 -24 15 -9 0
-107 60 -115 71 -7 9 -146 101 -184 121 -17 9 -49 33 -71 52 -22 20 -43 36
-48 36 -9 0 -116 69 -140 91 -10 9 -34 25 -55 35 -20 11 -48 29 -62 42 -14 13
-38 29 -55 36 -16 7 -49 28 -72 47 -41 34 -117 84 -216 146 -29 17 -62 41 -73
52 -12 10 -39 29 -60 40 -46 25 -186 119 -229 155 -17 13 -53 36 -80 50 -28
15 -57 34 -65 44 -8 9 -26 22 -40 28 -14 7 -63 39 -110 73 -47 33 -90 61 -96
61 -6 0 -21 12 -35 26 -13 15 -42 34 -64 44 -22 10 -49 26 -60 37 -11 10 -38
30 -60 43 -22 13 -42 27 -45 30 -3 4 -16 13 -30 20 -14 7 -43 28 -65 46 -22
18 -54 38 -70 44 l-30 11 25 -27z"/>
<path d="M15208 22275 c-2 -1 -62 -6 -134 -9 -73 -4 -140 -8 -150 -10 -11 -2
-58 -7 -105 -11 -47 -3 -95 -8 -105 -10 -11 -1 -53 -6 -94 -9 -108 -10 -172
-16 -195 -20 -11 -2 -49 -7 -85 -11 -111 -11 -235 -36 -440 -87 -123 -31 -128
-32 -235 -49 -38 -6 -160 -40 -270 -75 -110 -35 -218 -66 -240 -70 -45 -8
-112 -32 -269 -98 -60 -25 -120 -46 -133 -46 -13 0 -51 -13 -85 -30 -33 -16
-66 -30 -74 -30 -8 0 -14 -4 -14 -10 0 -5 -4 -10 -10 -10 -5 0 -42 -16 -81
-35 -40 -19 -80 -35 -91 -35 -10 0 -46 -15 -80 -34 -35 -18 -93 -50 -131 -70
-37 -20 -74 -36 -82 -36 -8 0 -38 -14 -67 -30 -29 -17 -63 -36 -75 -42 -13 -6
-23 -15 -23 -20 0 -4 -5 -8 -11 -8 -6 0 -23 -8 -37 -19 -15 -10 -40 -21 -57
-25 -16 -4 -73 -36 -125 -70 -52 -35 -106 -67 -120 -71 -14 -4 -63 -35 -110
-69 -47 -34 -103 -70 -125 -80 -22 -11 -67 -41 -99 -68 -33 -27 -78 -59 -100
-70 -39 -20 -79 -50 -136 -102 -14 -13 -45 -35 -70 -49 -25 -15 -69 -49 -99
-76 -30 -27 -66 -56 -80 -63 -14 -7 -53 -39 -85 -70 -33 -32 -63 -58 -66 -58
-10 0 -133 -109 -251 -222 -76 -74 -64 -76 16 -3 33 30 66 55 73 55 6 0 12 4
12 9 0 5 10 13 23 17 12 4 47 28 77 54 30 26 75 58 100 71 47 25 74 43 138 93
20 16 62 40 92 54 30 14 57 28 60 31 15 18 109 76 172 107 40 20 97 52 126 71
29 19 78 46 110 60 96 42 154 71 237 117 44 25 94 47 112 51 18 3 93 34 166
69 72 34 148 65 168 69 20 3 112 35 205 72 93 37 194 71 224 75 30 4 89 19
130 33 95 31 199 62 273 81 31 8 61 18 66 21 6 3 52 10 103 15 90 9 121 14
156 24 9 3 30 7 46 10 16 3 52 10 80 15 61 12 99 19 146 27 19 3 42 7 50 9 8
2 38 7 65 10 28 4 60 8 73 10 13 2 53 7 90 11 37 3 76 8 87 10 113 23 1048 25
1230 3 39 -4 93 -11 120 -14 28 -4 68 -8 90 -11 35 -4 173 -26 245 -40 14 -2
70 -11 125 -20 55 -9 132 -22 170 -30 39 -7 86 -16 105 -18 19 -3 91 -20 160
-40 69 -19 145 -40 170 -46 25 -7 75 -20 111 -31 36 -10 75 -19 87 -19 12 0
30 -4 40 -9 9 -5 28 -13 42 -18 154 -61 189 -73 204 -73 9 0 36 -9 58 -20 23
-11 50 -20 60 -20 15 0 162 -63 210 -90 10 -6 26 -10 36 -10 10 0 22 -4 28 -8
5 -5 25 -14 44 -21 130 -47 709 -347 805 -417 17 -12 40 -25 53 -29 12 -3 35
-18 49 -31 15 -14 50 -36 77 -50 28 -14 53 -29 56 -33 3 -4 41 -32 85 -61 44
-29 82 -56 85 -60 3 -4 30 -23 61 -43 31 -19 60 -40 63 -46 4 -5 37 -31 74
-56 38 -25 83 -61 102 -80 19 -19 39 -35 44 -35 6 0 43 -29 81 -65 39 -36 73
-65 77 -65 3 0 30 -23 60 -51 29 -28 66 -60 82 -72 15 -12 36 -31 45 -41 9
-11 27 -29 39 -40 22 -20 115 -110 137 -134 34 -37 98 -92 106 -92 5 0 9 -7 9
-15 0 -8 5 -15 10 -15 6 0 10 -6 10 -12 0 -7 25 -33 55 -58 30 -25 57 -53 60
-62 3 -9 37 -49 75 -88 38 -39 76 -83 84 -98 8 -15 42 -56 75 -91 33 -34 63
-73 67 -85 4 -11 16 -30 28 -42 49 -47 99 -112 118 -152 11 -23 29 -47 39 -53
11 -5 19 -15 19 -22 0 -7 11 -25 25 -40 l26 -27 894 0 c492 0 895 3 895 6 0 3
-11 19 -25 36 -14 16 -25 37 -25 46 0 10 -30 58 -68 107 -37 50 -73 103 -80
118 -12 28 -45 73 -109 147 -18 21 -33 44 -33 51 0 15 -93 128 -115 141 -7 4
-18 22 -26 40 -7 18 -37 58 -66 88 -29 31 -66 77 -83 103 -16 26 -33 47 -38
47 -4 0 -29 26 -55 58 -139 167 -590 621 -707 711 -12 9 -34 28 -48 42 -15 14
-54 47 -87 74 -33 27 -73 61 -89 77 -17 15 -35 28 -40 28 -6 0 -33 21 -60 45
-27 25 -72 60 -100 79 -28 19 -60 44 -71 56 -11 12 -37 31 -57 41 -21 10 -45
27 -55 37 -10 10 -52 40 -93 67 -41 27 -91 61 -110 77 -19 15 -41 28 -50 28
-8 0 -32 16 -54 35 -21 19 -44 35 -51 35 -6 0 -30 13 -52 29 -21 15 -67 43
-101 62 -34 18 -62 36 -62 41 0 4 -8 8 -18 8 -10 0 -23 5 -30 12 -16 16 -136
82 -297 163 -71 36 -137 70 -145 75 -28 16 -210 100 -219 100 -5 0 -41 16 -80
35 -39 19 -75 35 -80 35 -6 0 -43 15 -83 33 -40 19 -86 37 -103 41 -16 4 -54
18 -83 32 -29 13 -59 24 -68 24 -8 0 -52 15 -97 34 -45 18 -98 37 -117 41 -19
3 -64 17 -100 30 -36 14 -87 29 -115 35 -27 6 -91 24 -141 41 -49 16 -112 33
-140 38 -27 5 -96 20 -154 34 -58 14 -132 31 -165 37 -33 6 -91 18 -130 26
-38 9 -79 18 -90 20 -11 2 -31 6 -45 9 -14 3 -63 10 -110 15 -47 5 -96 11
-110 14 -14 3 -45 7 -70 10 -25 3 -56 8 -69 10 -23 5 -68 9 -236 21 -44 3
-102 8 -130 11 -27 2 -79 7 -115 10 -66 5 -687 14 -692 9z"/>
<path d="M26065 21573 c-16 -9 -32 -19 -35 -23 -3 -4 -43 -20 -90 -35 -47 -15
-143 -56 -213 -91 -71 -35 -140 -64 -153 -64 -14 0 -57 -17 -97 -37 -40 -21
-74 -38 -77 -38 -3 0 -37 -17 -77 -38 -40 -20 -82 -37 -95 -37 -13 0 -83 -29
-157 -65 -73 -36 -147 -68 -164 -72 -18 -3 -77 -27 -132 -54 -55 -26 -111 -53
-125 -59 -14 -6 -36 -17 -50 -25 -14 -8 -37 -15 -52 -15 -14 0 -79 -27 -144
-60 -65 -34 -147 -70 -183 -82 -36 -12 -121 -47 -188 -80 -66 -32 -136 -61
-155 -65 -33 -6 -80 -25 -108 -43 -28 -18 -185 -88 -225 -100 -41 -12 -159
-63 -185 -80 -27 -17 -102 -50 -114 -50 -16 0 -169 -61 -186 -75 -8 -7 -22
-15 -30 -18 -8 -3 -53 -22 -100 -41 -46 -20 -89 -36 -95 -36 -6 0 -60 -25
-121 -55 -60 -30 -115 -55 -122 -55 -7 0 -31 -8 -55 -19 -23 -10 -64 -28 -92
-39 -27 -11 -76 -34 -109 -51 -32 -17 -67 -31 -79 -31 -11 0 -28 -7 -38 -16
-10 -9 -37 -20 -61 -25 -24 -6 -54 -18 -68 -27 -14 -9 -42 -24 -63 -33 l-38
-15 41 -43 c22 -24 43 -54 46 -67 3 -12 19 -37 36 -56 61 -67 96 -114 103
-137 7 -21 42 -70 120 -166 13 -16 25 -38 25 -47 0 -9 23 -48 52 -85 28 -37
63 -91 78 -119 37 -69 82 -147 95 -161 28 -33 34 -42 49 -71 9 -17 16 -37 16
-45 0 -7 14 -35 31 -60 l31 -47 68 0 c49 0 71 4 81 16 7 8 25 22 41 30 15 8
28 21 28 29 0 8 5 15 10 15 16 0 138 103 139 117 1 6 9 14 20 18 10 3 51 37
91 75 40 39 76 70 80 70 11 0 90 74 90 85 1 6 29 28 63 50 34 22 66 49 71 61
5 11 32 36 59 55 27 19 60 45 74 59 13 14 39 40 56 57 18 18 38 33 45 33 6 0
12 5 12 10 0 6 7 10 15 10 9 0 18 7 22 16 8 21 95 103 110 104 6 0 20 10 30
23 10 12 66 64 125 115 59 51 125 110 147 130 22 20 64 55 92 77 28 22 56 50
61 61 6 12 22 27 36 34 39 17 96 65 111 93 7 14 35 37 62 51 26 15 58 41 71
59 30 42 56 65 95 83 18 8 41 26 50 41 26 40 73 82 110 98 17 8 34 23 38 32 3
10 31 38 61 63 31 25 81 68 112 95 31 28 70 62 87 77 16 15 58 51 92 79 35 28
65 60 68 70 4 11 14 19 24 19 16 0 86 62 140 123 13 15 30 27 37 27 14 0 29
14 113 104 19 20 42 36 52 36 9 0 32 19 51 42 45 58 90 97 110 98 9 0 24 12
34 28 9 15 39 45 66 67 78 64 154 135 143 135 -5 -1 -23 -8 -40 -17z"/>
<path d="M14059 21366 c-2 -2 -92 -6 -199 -10 -107 -4 -211 -9 -230 -12 -19
-2 -66 -9 -105 -15 -38 -6 -83 -13 -100 -15 -43 -7 -136 -23 -165 -30 -14 -3
-38 -8 -55 -10 -16 -3 -95 -21 -173 -40 -79 -19 -160 -34 -181 -34 -20 0 -52
-5 -71 -11 -19 -5 -42 -12 -50 -14 -28 -7 -185 -56 -205 -64 -50 -22 -144 -50
-185 -56 -54 -8 -258 -86 -342 -131 -14 -8 -39 -14 -55 -14 -16 0 -91 -31
-168 -69 -76 -38 -154 -72 -173 -76 -20 -4 -51 -17 -71 -31 -20 -13 -39 -24
-43 -24 -4 0 -33 -16 -64 -36 -31 -20 -73 -41 -93 -46 -37 -10 -140 -68 -176
-99 -11 -10 -47 -30 -80 -45 -33 -15 -89 -47 -125 -72 -35 -25 -89 -58 -120
-75 -56 -31 -121 -77 -153 -109 -10 -10 -22 -18 -28 -18 -12 0 -98 -57 -114
-75 -5 -7 -50 -40 -100 -75 -49 -35 -99 -73 -110 -84 -11 -12 -42 -37 -69 -56
-27 -19 -74 -59 -104 -87 -30 -29 -58 -53 -63 -53 -9 0 -140 -121 -235 -217
-34 -35 -64 -63 -68 -63 -3 0 -25 -21 -49 -46 -23 -25 -75 -78 -114 -117 -40
-38 -73 -74 -73 -78 0 -4 -32 -40 -70 -79 -39 -39 -70 -75 -70 -80 0 -5 -22
-30 -50 -56 -27 -26 -50 -51 -50 -56 0 -11 -70 -101 -83 -106 -4 -2 -39 -48
-78 -103 -38 -54 -81 -111 -94 -125 -14 -15 -25 -33 -25 -40 0 -8 -5 -14 -11
-14 -5 0 -16 -15 -24 -34 -8 -19 -20 -40 -27 -48 -28 -28 -74 -94 -86 -120 -6
-16 -16 -28 -22 -28 -5 0 -10 -6 -10 -14 0 -15 -75 -132 -91 -141 -5 -4 -9
-13 -9 -21 0 -8 -9 -24 -20 -36 -11 -12 -20 -28 -20 -36 0 -8 -14 -35 -32 -61
-26 -39 -89 -155 -199 -371 -45 -88 -49 -98 -49 -111 0 -7 -25 -61 -55 -120
-30 -59 -55 -116 -55 -128 0 -11 -4 -22 -9 -26 -5 -3 -13 -20 -17 -38 -6 -28
-19 -62 -69 -172 -20 -45 -65 -185 -65 -204 0 -9 -14 -52 -31 -96 -16 -44 -32
-87 -34 -95 -2 -8 -15 -53 -29 -100 -13 -47 -30 -112 -36 -145 -7 -33 -31
-141 -55 -240 -24 -99 -48 -207 -55 -240 -7 -33 -16 -74 -20 -90 -4 -17 -8
-68 -9 -115 -3 -84 -4 -98 -15 -175 -12 -85 -16 -122 -21 -180 -3 -33 -8 -76
-10 -95 -25 -215 -25 -801 0 -1000 2 -19 6 -64 9 -100 4 -36 8 -78 11 -95 2
-16 7 -50 10 -75 3 -25 7 -54 9 -66 6 -30 14 -106 22 -199 3 -44 15 -122 26
-174 11 -51 21 -101 23 -110 7 -34 45 -180 69 -267 14 -51 28 -116 32 -145 4
-30 28 -115 55 -189 70 -201 76 -218 100 -300 12 -41 35 -104 51 -140 17 -36
38 -83 48 -105 10 -22 28 -69 40 -105 12 -35 44 -106 71 -157 27 -52 49 -99
49 -105 0 -14 99 -211 110 -218 4 -3 26 -43 49 -90 42 -87 97 -181 111 -190 4
-3 20 -32 35 -65 16 -33 50 -88 77 -123 26 -35 48 -69 48 -77 0 -7 4 -15 8
-17 5 -2 29 -34 55 -73 26 -38 62 -90 81 -115 19 -25 35 -50 35 -56 1 -6 24
-35 51 -64 28 -29 50 -57 50 -63 0 -9 33 -51 79 -102 10 -11 35 -42 57 -70 81
-104 172 -207 284 -325 36 -37 75 -79 87 -92 12 -12 45 -47 75 -75 29 -29 60
-59 68 -68 47 -47 153 -144 186 -170 21 -16 54 -46 74 -65 39 -39 216 -185
258 -212 14 -9 30 -24 34 -32 5 -9 15 -16 22 -16 7 0 28 -14 47 -31 19 -17 74
-58 122 -91 49 -33 99 -69 112 -80 13 -11 33 -26 44 -32 74 -41 130 -77 142
-89 14 -14 61 -42 169 -101 30 -16 57 -33 60 -37 3 -3 32 -21 65 -38 70 -37
110 -59 145 -78 14 -8 37 -19 53 -24 15 -6 27 -15 27 -19 0 -5 10 -12 23 -15
22 -7 98 -42 208 -97 62 -30 171 -77 264 -113 33 -12 86 -34 117 -49 31 -14
64 -26 73 -26 9 0 34 -9 55 -20 22 -11 68 -28 102 -36 34 -9 69 -20 77 -25 31
-16 137 -52 176 -59 22 -4 85 -21 140 -37 55 -17 132 -38 170 -47 39 -10 78
-19 88 -22 9 -2 27 -6 40 -10 12 -3 51 -9 86 -15 36 -5 90 -16 120 -24 31 -8
70 -16 86 -19 17 -2 31 -5 33 -6 3 -3 7 -4 52 -13 39 -7 90 -13 195 -22 38 -4
72 -8 75 -10 5 -3 33 -7 200 -25 172 -19 757 -29 908 -16 30 3 115 7 190 11
126 6 295 21 346 31 11 2 44 6 71 9 59 6 158 18 165 20 3 0 21 4 40 8 63 13
74 15 195 42 66 15 143 32 170 37 55 11 124 27 225 53 97 24 116 30 225 67
119 41 208 68 223 68 6 0 75 27 154 61 79 33 166 67 193 74 28 7 100 39 160
70 61 31 138 66 173 77 34 11 62 24 62 28 0 4 19 15 43 26 23 10 56 29 74 42
17 13 49 28 70 34 21 5 57 23 81 39 24 16 57 36 74 45 30 15 42 24 73 52 7 6
23 12 35 12 11 0 65 31 118 70 53 38 105 70 114 70 9 0 20 5 23 10 4 6 24 22
44 35 21 13 56 40 77 60 22 19 50 38 64 42 14 3 57 33 95 65 96 81 93 78 105
78 6 0 23 12 39 28 42 41 116 102 148 122 15 9 56 45 91 79 35 33 67 61 71 61
9 0 49 37 105 100 63 69 33 49 -109 -73 -18 -15 -38 -27 -44 -27 -13 0 -92
-56 -176 -125 -16 -14 -38 -25 -49 -25 -10 0 -35 -13 -55 -28 -69 -54 -160
-112 -176 -112 -13 0 -64 -30 -223 -129 -18 -12 -41 -21 -50 -21 -17 -1 -35
-9 -194 -94 -48 -25 -96 -46 -107 -46 -11 0 -66 -22 -123 -49 -160 -75 -193
-88 -236 -96 -22 -3 -76 -20 -119 -36 -43 -17 -105 -39 -138 -50 -33 -11 -69
-24 -80 -29 -11 -6 -65 -19 -120 -30 -55 -11 -136 -29 -180 -41 -135 -35 -318
-77 -365 -83 -25 -3 -65 -8 -90 -11 -25 -3 -56 -7 -70 -10 -14 -3 -77 -10
-140 -16 -63 -5 -135 -12 -160 -15 -280 -33 -780 -37 -1005 -9 -16 2 -69 4
-117 6 -47 1 -110 6 -140 10 -79 13 -115 18 -198 29 -164 23 -369 66 -580 121
-41 11 -99 24 -129 30 -30 5 -59 13 -65 17 -6 3 -15 7 -21 9 -15 3 -161 52
-225 75 -30 11 -77 26 -105 33 -27 8 -59 19 -70 24 -46 22 -136 61 -142 61
-18 0 -213 87 -368 164 -22 11 -47 23 -55 26 -43 19 -127 65 -141 76 -8 8 -23
14 -31 14 -9 0 -26 9 -39 20 -19 15 -21 19 -8 20 13 0 21 19 34 77 74 347 174
628 303 854 l54 97 103 -112 c300 -323 681 -616 1043 -800 133 -67 311 -146
331 -146 34 0 0 34 -80 80 -314 182 -638 517 -889 921 -358 576 -658 1385
-850 2292 -32 148 -35 157 -57 157 l-23 0 0 -1710 0 -1710 -37 21 c-21 12 -57
34 -80 50 -23 16 -45 29 -49 29 -3 0 -29 16 -55 35 -27 19 -52 35 -55 35 -12
0 -179 114 -187 127 -4 7 -14 13 -22 13 -7 0 -31 15 -53 33 -22 17 -89 68
-149 112 -59 44 -119 90 -133 102 -14 12 -50 43 -80 68 -232 197 -611 569
-658 648 -9 15 -22 27 -29 27 -7 0 -13 5 -13 11 0 7 -19 33 -42 59 -24 25 -54
62 -68 80 -14 18 -49 61 -77 96 -29 35 -53 67 -53 72 0 5 -9 17 -20 27 -11 10
-20 22 -20 27 0 6 -20 33 -44 61 -24 29 -51 66 -60 82 -39 70 -59 100 -72 108
-8 4 -14 13 -14 20 0 7 -10 23 -23 37 -13 14 -30 39 -38 55 -9 17 -21 41 -29
55 -7 14 -16 30 -19 36 -3 7 -23 36 -43 65 -20 30 -54 90 -75 134 -21 44 -52
100 -67 125 -16 25 -47 86 -68 135 -21 50 -59 131 -83 180 -24 50 -47 102 -51
118 -3 15 -10 30 -15 33 -5 3 -9 14 -9 24 0 10 -25 75 -55 145 -51 117 -63
151 -84 245 -5 19 -32 104 -60 189 -45 133 -70 234 -95 381 -3 19 -8 44 -11
55 -8 32 -34 150 -34 153 0 3 -18 102 -31 167 -5 28 -12 68 -15 90 -10 72 -17
120 -21 145 -13 86 -19 291 -19 695 0 436 3 518 25 660 5 33 11 78 15 100 19
132 28 180 56 305 11 52 24 129 29 170 7 74 38 196 87 340 13 41 37 125 53
185 16 61 43 144 60 185 42 101 90 232 90 247 0 10 80 184 131 285 5 10 9 24
9 33 0 13 16 43 73 140 10 17 27 50 39 75 44 98 61 131 72 143 16 18 69 106
90 152 10 22 40 70 67 106 26 36 53 76 58 90 15 34 29 54 89 131 28 37 52 72
52 77 0 6 4 11 9 11 5 0 14 13 20 29 7 15 33 51 59 78 26 28 56 68 67 89 11
20 40 56 63 78 24 23 50 53 58 68 8 15 33 46 56 71 50 51 118 127 118 132 0
11 430 429 457 443 10 6 43 35 73 66 30 31 67 62 82 69 16 8 54 38 86 68 31
30 73 62 92 72 19 10 54 35 77 55 52 46 88 71 133 96 19 10 64 42 100 70 36
29 78 56 94 60 16 4 50 23 75 42 81 61 149 103 178 110 15 4 48 21 73 38 25
18 59 39 75 48 17 8 44 22 60 31 17 9 56 26 88 38 31 12 57 25 57 30 0 5 9 9
19 9 11 0 23 4 26 10 9 15 144 80 166 80 11 0 53 15 92 34 161 76 213 98 257
106 25 5 70 18 100 28 278 99 349 122 377 122 18 0 94 16 169 36 260 68 430
99 659 119 110 9 214 19 230 21 209 25 643 25 975 0 36 -3 99 -8 140 -11 41
-2 84 -7 95 -9 11 -2 49 -7 85 -10 133 -14 236 -32 330 -56 19 -5 50 -12 69
-15 19 -3 37 -8 41 -10 9 -6 55 -15 123 -26 32 -5 66 -13 75 -18 9 -5 40 -12
67 -16 28 -4 109 -28 180 -52 72 -25 139 -47 150 -50 78 -20 224 -71 298 -104
48 -21 90 -38 95 -37 4 1 26 -8 49 -20 23 -12 48 -22 55 -22 12 0 138 -59 249
-116 26 -13 53 -24 60 -24 8 0 34 -14 59 -30 25 -17 65 -40 90 -52 25 -11 57
-29 72 -39 14 -11 33 -19 41 -19 8 0 35 -16 61 -36 25 -19 61 -41 80 -49 18
-8 47 -25 62 -38 16 -13 37 -27 47 -30 10 -4 60 -36 111 -72 52 -36 97 -65
101 -65 4 0 27 -18 52 -40 25 -22 51 -40 57 -40 6 0 25 -12 42 -27 43 -40 142
-113 151 -113 5 0 14 -9 21 -20 6 -11 29 -30 50 -44 20 -13 55 -41 77 -62 22
-22 58 -53 80 -69 22 -16 65 -55 95 -87 30 -32 60 -58 65 -58 6 0 39 -32 74
-71 35 -38 65 -68 68 -65 3 3 -11 22 -30 43 -20 21 -42 48 -49 62 -7 13 -40
53 -73 88 -33 35 -81 87 -108 116 -102 112 -440 447 -451 447 -5 0 -36 27 -69
60 -34 33 -80 72 -103 86 -23 15 -47 36 -53 48 -7 12 -28 31 -49 44 -57 35
-70 44 -119 90 -25 23 -51 42 -57 42 -6 0 -26 12 -43 28 -47 40 -219 162 -231
162 -5 0 -32 18 -58 40 -27 23 -67 50 -89 61 -45 22 -56 29 -140 84 -33 21
-98 59 -145 83 -47 24 -96 52 -110 61 -14 10 -61 35 -105 55 -44 21 -93 45
-110 53 -99 51 -125 64 -176 87 -31 14 -78 33 -105 42 -27 9 -51 19 -54 23 -3
4 -35 19 -73 34 -37 15 -95 38 -130 52 -34 14 -67 25 -73 25 -10 0 -149 52
-239 90 -11 5 -31 11 -45 13 -40 7 -218 56 -269 73 -86 29 -211 64 -232 64
-12 0 -47 6 -78 14 -31 8 -76 17 -101 20 -25 3 -54 7 -65 10 -35 8 -219 45
-255 51 -41 8 -57 10 -125 20 -27 3 -61 8 -75 11 -14 3 -63 7 -110 10 -47 3
-103 7 -125 11 -42 6 -870 15 -876 9z"/>
<path d="M4070 20501 c0 -6 7 -11 16 -11 8 0 41 -22 72 -48 31 -27 83 -65 115
-86 32 -21 65 -45 75 -55 24 -24 120 -91 131 -91 5 0 11 -3 13 -7 5 -13 106
-93 116 -93 5 0 17 -9 27 -20 10 -11 22 -20 28 -20 5 0 35 -22 67 -50 32 -27
60 -50 64 -50 8 0 106 -70 126 -90 8 -9 54 -42 100 -74 47 -33 97 -70 112 -84
15 -13 36 -30 46 -36 47 -26 129 -87 152 -111 13 -14 29 -25 35 -25 7 0 24
-11 39 -25 15 -14 32 -25 37 -25 5 0 20 -10 32 -23 12 -13 60 -50 107 -82 96
-67 95 -66 133 -100 15 -14 34 -25 41 -25 8 0 17 -7 20 -15 3 -9 18 -21 33
-28 28 -12 73 -47 102 -79 8 -10 20 -18 27 -18 6 0 24 -11 40 -25 16 -14 32
-25 37 -25 4 0 15 -8 25 -17 9 -10 67 -54 127 -98 61 -43 112 -82 115 -85 11
-13 108 -80 116 -80 5 0 29 -19 54 -42 25 -23 61 -50 80 -60 19 -10 38 -25 43
-33 4 -8 13 -15 19 -15 6 0 18 -7 27 -15 25 -25 160 -125 168 -125 4 0 27 -17
52 -38 25 -21 73 -57 106 -80 33 -23 76 -55 95 -72 19 -16 40 -30 46 -30 6 0
24 -13 40 -30 16 -16 34 -30 41 -30 6 0 13 -4 15 -8 2 -5 30 -27 64 -50 33
-23 68 -50 79 -62 10 -11 24 -20 30 -20 7 0 32 -17 56 -38 44 -39 133 -102
143 -102 3 0 24 -18 47 -40 23 -22 46 -40 50 -40 4 0 14 -2 21 -5 17 -7 29 18
63 120 19 59 54 135 141 308 8 16 14 37 14 47 0 9 7 23 15 30 8 7 15 16 15 20
0 5 15 35 33 67 19 33 37 71 40 84 4 14 16 36 27 49 11 13 20 30 20 37 0 8 8
27 18 41 35 55 51 84 117 210 9 19 37 64 61 100 24 37 44 72 44 78 0 6 7 17
15 24 8 7 15 18 15 24 0 12 -111 56 -141 56 -9 0 -30 7 -45 15 -16 8 -37 15
-46 15 -9 0 -19 4 -22 9 -3 5 -23 12 -43 16 -21 3 -81 21 -133 39 -168 59
-284 97 -335 112 -27 8 -54 16 -60 17 -5 2 -28 11 -49 21 -22 9 -51 19 -65 22
-25 5 -154 47 -291 93 -36 12 -87 29 -115 38 -58 18 -206 67 -320 107 -44 15
-96 31 -115 36 -19 4 -66 19 -105 34 -38 15 -99 35 -135 46 -36 10 -90 27
-120 39 -30 12 -61 21 -69 21 -8 0 -69 20 -135 44 -67 24 -161 56 -211 71
-178 55 -188 58 -256 88 -21 9 -54 19 -75 23 -22 4 -58 15 -82 26 -24 10 -53
18 -63 18 -11 0 -41 9 -67 19 -62 26 -199 73 -292 101 -113 34 -193 60 -215
70 -38 18 -130 48 -165 55 -19 4 -39 10 -45 14 -5 3 -12 6 -15 7 -3 0 -12 3
-20 6 -8 3 -33 10 -55 16 -22 5 -78 25 -125 42 -47 18 -105 38 -130 45 -25 7
-53 16 -62 20 -11 4 -18 3 -18 -4z"/>
<path d="M14045 20170 c-166 -43 -247 -69 -378 -124 -729 -302 -1263 -879
-1481 -1600 -129 -424 -153 -928 -66 -1380 102 -528 401 -1087 791 -1476 421
-421 1011 -761 2265 -1303 418 -181 614 -272 914 -423 756 -381 1212 -707
1412 -1009 160 -240 270 -536 330 -881 30 -176 33 -570 5 -739 -99 -594 -362
-1118 -704 -1405 -331 -277 -726 -433 -1235 -487 -123 -14 -158 -20 -158 -32
0 -32 461 5 745 59 698 134 1273 431 1715 886 217 224 349 412 490 699 155
314 244 622 292 1015 20 159 16 641 -5 805 -113 845 -483 1501 -1112 1970
-300 223 -1078 619 -2252 1147 -895 401 -1496 748 -1889 1088 -204 177 -351
420 -468 772 -148 445 -184 880 -104 1248 120 557 488 980 1028 1181 112 42
46 36 -135 -11z"/>
<path d="M15805 20119 c112 -41 343 -157 450 -224 251 -159 496 -379 643 -579
301 -408 557 -1015 770 -1826 43 -163 52 -185 71 -188 l21 -3 0 1386 0 1386
-22 -3 c-19 -3 -23 -15 -40 -112 -23 -137 -81 -313 -148 -447 -50 -98 -150
-258 -205 -324 l-24 -30 -178 177 c-205 203 -232 227 -368 333 -292 227 -496
333 -823 429 -208 61 -274 72 -147 25z"/>
<path d="M19470 18946 c0 -2 8 -10 18 -17 15 -13 16 -12 3 4 -13 16 -21 21
-21 13z"/>
<path d="M1265 17850 c55 -27 117 -52 138 -55 21 -4 75 -24 120 -45 178 -81
198 -90 217 -90 19 0 138 -47 154 -62 6 -4 18 -8 28 -8 10 0 18 -4 18 -10 0
-5 5 -10 10 -10 6 0 30 -9 53 -21 23 -11 62 -24 87 -29 25 -5 103 -36 174 -70
71 -34 147 -65 170 -70 22 -4 66 -19 96 -32 73 -33 191 -87 212 -99 10 -5 29
-9 43 -9 25 0 50 -11 242 -101 46 -22 93 -39 106 -39 13 0 86 -29 163 -64 76
-35 155 -67 174 -71 36 -7 60 -17 165 -65 124 -57 151 -68 185 -74 19 -4 58
-18 85 -31 144 -69 206 -95 251 -106 41 -10 248 -97 305 -129 9 -5 34 -12 55
-15 22 -4 66 -20 99 -35 33 -15 95 -44 138 -64 42 -20 83 -36 90 -36 18 0 112
-36 187 -72 72 -34 179 -76 225 -87 30 -8 104 -41 197 -87 27 -13 54 -24 61
-24 19 0 217 -78 246 -97 23 -15 140 -58 190 -70 13 -3 55 -21 92 -39 38 -19
72 -34 74 -34 3 0 24 -8 48 -19 64 -28 131 -51 150 -51 9 0 17 -4 17 -9 0 -5
12 -12 26 -15 15 -4 59 -23 98 -42 39 -19 79 -34 88 -34 10 0 33 -9 53 -20 20
-11 43 -20 51 -20 9 0 53 -17 98 -39 44 -21 122 -53 171 -70 50 -18 109 -41
133 -52 23 -10 48 -19 55 -19 9 0 18 43 30 143 10 79 20 155 22 168 3 13 10
76 15 139 15 166 28 239 110 590 16 69 34 152 40 185 14 73 42 175 85 315 18
58 40 134 50 170 9 36 32 107 50 158 l33 92 -27 1 c-14 0 -37 2 -51 4 -14 1
-68 6 -120 10 -52 4 -120 9 -150 11 -168 13 -189 14 -490 29 -63 4 -131 8
-150 10 -19 2 -84 7 -145 10 -60 4 -119 9 -130 11 -11 2 -83 6 -160 9 -128 5
-357 19 -480 30 -27 3 -86 7 -130 10 -44 3 -102 7 -130 10 -27 2 -86 7 -130
10 -44 3 -100 8 -125 10 -25 2 -94 7 -155 10 -60 4 -113 9 -116 11 -4 2 -76 6
-160 9 -85 3 -181 8 -214 10 -81 6 -214 14 -365 20 -69 3 -136 7 -150 9 -14 3
-72 8 -130 11 -162 10 -190 12 -260 19 -36 3 -101 8 -145 11 -44 3 -100 7
-125 10 -25 3 -85 7 -135 10 -49 3 -106 8 -125 10 -19 2 -80 7 -135 10 -55 4
-116 9 -135 11 -38 4 -190 10 -445 19 -88 3 -176 7 -195 9 -19 2 -75 7 -125
10 -49 4 -108 9 -130 11 -22 2 -80 7 -130 10 -49 3 -108 8 -130 10 -22 3 -78
7 -125 10 -88 6 -174 12 -270 20 l-55 4 100 -49z"/>
<path d="M6996 14904 c-27 -7 -66 -16 -85 -19 -81 -12 -108 -18 -156 -31 -27
-7 -68 -14 -90 -15 -22 -2 -44 -6 -50 -9 -5 -4 -26 -10 -45 -13 -19 -3 -44 -8
-55 -11 -220 -53 -328 -78 -410 -92 -55 -9 -174 -35 -265 -56 -91 -22 -172
-41 -180 -43 -8 -2 -44 -10 -80 -18 -36 -9 -99 -21 -140 -27 -81 -12 -207 -40
-450 -100 -85 -21 -184 -41 -220 -45 -64 -7 -188 -32 -285 -59 -148 -41 -395
-96 -431 -96 -23 0 -113 -18 -200 -40 -88 -22 -168 -41 -179 -43 -11 -2 -27
-6 -35 -9 -50 -18 -242 -58 -276 -58 -37 0 -130 -19 -264 -55 -30 -8 -84 -22
-120 -30 -36 -9 -81 -20 -100 -25 -19 -5 -46 -11 -60 -14 -95 -21 -97 -24 -20
-26 41 -1 82 -3 90 -4 8 -2 62 -9 120 -15 124 -14 149 -17 215 -27 28 -3 66
-8 85 -10 64 -6 145 -15 170 -19 25 -4 55 -7 175 -20 33 -4 71 -9 85 -11 14
-3 104 -9 200 -14 96 -5 184 -11 195 -13 11 -3 56 -8 100 -11 44 -4 87 -9 95
-11 8 -2 42 -7 75 -9 33 -3 76 -8 95 -11 46 -7 103 -14 170 -20 30 -3 70 -8
88 -10 18 -3 54 -7 80 -10 26 -3 65 -8 87 -11 22 -2 56 -7 75 -9 82 -11 122
-14 255 -20 77 -3 172 -10 210 -15 39 -5 95 -12 125 -15 30 -2 73 -7 95 -10
205 -25 242 -30 335 -41 30 -3 66 -7 80 -9 14 -2 57 -6 95 -10 39 -4 79 -9 90
-11 23 -5 97 -12 205 -19 212 -14 356 -26 370 -29 8 -3 44 -8 80 -11 36 -4 79
-8 95 -10 17 -2 56 -7 89 -10 l58 -7 -5 28 c-17 88 -61 419 -71 544 -21 235
-24 325 -26 603 -1 256 7 236 -84 211z"/>
<path d="M7201 13166 c-6 -7 -24 -16 -40 -19 -16 -4 -58 -23 -93 -45 -72 -43
-181 -96 -219 -105 -14 -4 -42 -18 -63 -32 -50 -34 -190 -102 -226 -110 -16
-4 -40 -15 -54 -26 -31 -25 -199 -109 -217 -109 -8 0 -40 -16 -72 -35 -32 -19
-78 -44 -102 -55 -24 -11 -46 -24 -49 -29 -4 -5 -24 -12 -46 -16 -22 -4 -55
-17 -74 -30 -56 -38 -208 -115 -227 -115 -16 0 -64 -25 -201 -106 -31 -19 -67
-34 -81 -34 -13 0 -39 -10 -58 -23 -19 -12 -63 -38 -99 -56 -36 -19 -71 -41
-78 -48 -7 -7 -27 -13 -44 -13 -18 0 -56 -16 -92 -38 -34 -21 -80 -46 -103
-56 -24 -11 -43 -22 -43 -26 0 -10 -48 -30 -73 -30 -12 0 -35 -9 -52 -20 -16
-12 -49 -30 -73 -41 -23 -11 -63 -33 -88 -49 -25 -16 -60 -32 -77 -36 -27 -6
-143 -62 -172 -84 -30 -22 -108 -60 -124 -60 -15 0 -49 -17 -229 -116 -24 -13
-48 -24 -54 -24 -17 0 -137 -60 -183 -90 -22 -15 -61 -35 -88 -44 -57 -19
-185 -83 -203 -101 -8 -7 -46 -25 -86 -41 -40 -15 -98 -41 -128 -57 -84 -46
-158 -82 -235 -116 -38 -17 -77 -36 -85 -41 -8 -6 -58 -31 -110 -56 -160 -76
-193 -93 -245 -124 -27 -16 -58 -29 -67 -30 -9 0 -23 -6 -30 -13 -7 -8 -31
-20 -53 -27 -22 -7 -60 -25 -85 -40 -61 -38 -179 -95 -215 -104 -16 -4 -42
-17 -58 -28 -37 -27 -223 -118 -239 -118 -8 0 -30 -11 -50 -25 -45 -31 -221
-115 -239 -115 -8 0 -27 -12 -44 -26 -16 -14 -25 -23 -20 -21 6 3 32 8 58 11
26 4 70 11 97 16 27 5 78 12 112 15 63 6 310 37 443 56 39 5 88 12 110 14 22
3 47 7 55 10 8 2 35 7 60 10 25 3 52 8 60 10 8 3 35 7 60 10 25 3 70 10 100
15 102 18 243 38 315 44 166 16 264 28 339 41 47 8 116 19 153 25 66 10 102
15 153 25 27 5 92 15 125 20 11 1 36 5 55 9 19 3 49 8 65 11 17 3 105 12 198
20 92 8 171 16 175 18 4 3 34 8 67 12 32 3 62 8 65 10 3 2 26 6 50 10 25 3 86
13 135 20 50 8 108 17 130 20 22 4 51 8 65 11 45 7 84 14 110 19 14 3 48 7 75
11 28 3 53 8 57 10 3 2 69 9 145 14 76 5 149 12 163 14 14 3 68 12 120 21 52
8 104 17 115 19 11 2 41 6 66 10 25 4 57 9 70 11 13 2 69 11 124 20 55 9 111
18 125 20 14 2 54 9 90 16 36 6 106 13 155 15 50 3 122 10 160 15 116 17 189
29 215 33 64 12 149 26 190 31 25 3 52 8 60 10 8 2 35 7 60 10 25 3 68 10 95
15 91 17 154 25 360 45 28 3 68 7 90 9 22 3 99 14 170 26 72 11 160 25 198 31
37 6 67 15 67 21 0 6 -8 27 -19 47 -10 20 -33 74 -51 121 -19 47 -53 126 -77
176 -24 50 -43 98 -43 106 0 9 -7 29 -15 44 -8 16 -15 39 -15 52 0 13 -11 44
-25 70 -14 26 -25 53 -25 60 0 7 -4 21 -10 32 -5 11 -15 29 -20 40 -15 29 -36
96 -51 160 -7 30 -36 127 -65 215 -46 138 -63 202 -87 335 -2 14 -23 97 -45
185 -22 88 -46 184 -52 213 -12 54 -20 61 -39 38z"/>
<path d="M7995 10822 c-27 -26 -63 -58 -80 -70 -16 -13 -52 -44 -80 -70 -27
-26 -72 -65 -100 -87 -27 -22 -66 -56 -85 -75 -19 -20 -53 -49 -74 -65 -22
-15 -55 -46 -74 -67 -20 -22 -55 -51 -79 -65 -23 -13 -43 -28 -43 -32 0 -12
-92 -100 -111 -106 -10 -4 -47 -34 -83 -68 -35 -34 -103 -96 -151 -137 -168
-145 -190 -165 -214 -192 -13 -16 -29 -28 -35 -28 -6 0 -46 -34 -88 -75 -42
-41 -81 -75 -86 -75 -5 0 -40 -31 -78 -70 -38 -38 -74 -70 -81 -70 -7 0 -43
-31 -79 -70 -37 -38 -73 -70 -80 -70 -7 0 -43 -31 -80 -70 -38 -38 -73 -70
-79 -70 -5 0 -44 -34 -85 -75 -41 -41 -80 -75 -85 -75 -6 0 -42 -31 -80 -70
-39 -38 -74 -70 -80 -70 -5 0 -45 -34 -87 -75 -43 -41 -81 -75 -85 -75 -5 0
-28 -20 -53 -45 -25 -25 -71 -66 -104 -91 -32 -25 -79 -68 -103 -95 -25 -26
-53 -51 -63 -54 -9 -3 -49 -36 -88 -73 -131 -123 -211 -195 -239 -212 -15 -10
-59 -48 -96 -84 -37 -36 -72 -66 -76 -66 -9 0 -122 -113 -117 -117 1 -1 56 24
121 56 66 32 140 64 165 71 25 8 104 42 175 76 72 34 146 65 165 69 19 4 98
38 175 76 78 38 151 69 163 69 11 0 85 31 164 69 79 38 162 72 185 76 23 4 47
13 54 21 6 8 15 14 20 14 5 0 59 25 120 55 61 30 121 55 133 55 12 0 91 34
175 75 84 41 161 75 173 75 11 0 85 32 164 70 80 39 154 70 165 70 10 0 83 31
162 69 78 38 158 72 177 76 19 4 94 36 165 70 72 35 145 66 164 70 30 6 115
43 151 65 32 20 147 69 195 83 28 8 95 37 150 65 55 27 143 64 195 82 52 18
97 36 100 39 13 17 198 97 249 108 12 3 38 13 56 22 l34 16 -28 42 c-15 23
-47 63 -69 89 -23 26 -42 52 -42 58 0 6 -14 25 -30 43 -17 18 -30 36 -30 40 0
4 -27 44 -60 88 -33 44 -66 94 -74 110 -9 17 -27 44 -42 60 -15 17 -35 49 -45
71 -10 23 -25 47 -33 53 -8 7 -26 35 -40 64 -14 29 -37 64 -51 79 -14 15 -25
33 -25 40 0 7 -16 39 -34 70 -19 31 -46 78 -61 103 -14 25 -30 51 -36 58 -5 7
-22 38 -37 69 l-27 58 -50 -48z"/>
<path d="M19336 10105 c-10 -14 -30 -34 -45 -43 -15 -9 -54 -47 -85 -84 -32
-38 -62 -68 -67 -68 -6 0 -40 -30 -77 -67 -37 -38 -84 -79 -105 -93 -20 -14
-37 -31 -37 -37 0 -7 -3 -13 -8 -13 -4 0 -22 -13 -40 -30 -18 -16 -42 -35 -54
-41 -11 -6 -38 -27 -60 -47 -22 -21 -56 -52 -75 -69 -20 -18 -40 -33 -45 -33
-12 0 -75 -49 -132 -102 -22 -20 -51 -39 -65 -42 -15 -2 -42 -20 -61 -38 -41
-40 -136 -108 -150 -108 -13 0 -131 -82 -168 -117 -7 -7 -25 -16 -40 -20 -24
-6 -156 -85 -190 -114 -7 -6 -41 -22 -74 -35 -33 -13 -74 -34 -92 -47 -41 -31
-165 -97 -183 -97 -8 0 -69 -29 -136 -64 -67 -35 -144 -71 -172 -79 -27 -8
-98 -37 -157 -65 -59 -28 -140 -60 -180 -72 -95 -27 -111 -33 -250 -86 -109
-41 -146 -52 -258 -74 -25 -5 -65 -16 -89 -24 -24 -9 -53 -18 -65 -20 -12 -3
-79 -21 -150 -40 -71 -20 -142 -36 -157 -36 -15 0 -56 -6 -91 -14 -35 -8 -88
-17 -118 -19 -30 -3 -89 -12 -130 -20 -41 -9 -95 -18 -120 -21 -25 -3 -56 -8
-70 -10 -14 -3 -45 -7 -70 -10 -25 -3 -79 -10 -120 -15 -166 -21 -281 -26
-655 -26 -343 0 -534 6 -600 19 -11 2 -56 7 -100 11 -43 3 -82 8 -85 10 -3 2
-30 6 -60 9 -30 4 -67 8 -81 11 -14 3 -66 9 -115 15 -49 5 -98 11 -109 14 -20
4 -179 35 -285 56 -30 5 -62 12 -70 14 -8 3 -55 14 -105 26 -174 42 -281 72
-430 121 -49 17 -106 34 -125 38 -19 4 -66 20 -105 36 -38 15 -83 31 -100 35
-41 11 -174 64 -273 111 -45 21 -88 39 -94 39 -7 0 -39 13 -73 29 -33 16 -121
59 -195 95 -74 37 -140 66 -147 66 -6 0 -18 6 -25 13 -20 18 -118 77 -130 77
-5 0 -22 8 -36 18 -15 10 -47 29 -72 41 -25 13 -47 27 -50 31 -3 4 -36 25 -73
46 -122 69 -279 172 -285 186 -2 4 -10 8 -17 8 -8 0 -29 13 -47 28 -18 16 -77
59 -130 96 -54 37 -98 70 -98 75 0 4 -12 14 -27 22 -16 8 -38 24 -51 37 -13
12 -27 22 -32 22 -5 0 -21 12 -37 28 -15 15 -64 56 -108 92 -44 36 -94 78
-112 95 -18 16 -64 59 -104 95 -39 36 -113 107 -165 158 -52 51 -94 89 -94 84
0 -5 10 -20 23 -34 12 -13 38 -44 57 -68 44 -55 75 -91 122 -142 21 -22 38
-42 38 -44 0 -6 338 -360 371 -389 6 -5 45 -41 86 -80 40 -38 92 -86 114 -105
22 -19 57 -51 78 -70 21 -19 52 -46 69 -60 17 -14 49 -40 69 -59 21 -18 74
-61 118 -94 44 -34 84 -67 88 -74 4 -7 22 -20 40 -29 18 -10 38 -25 45 -35 7
-11 19 -19 26 -19 7 0 24 -10 38 -22 52 -47 78 -68 87 -68 4 0 20 -11 35 -25
15 -14 32 -25 39 -25 7 0 24 -11 38 -24 23 -21 153 -110 184 -126 19 -10 140
-89 165 -108 14 -11 36 -23 48 -27 13 -4 44 -21 69 -38 51 -36 58 -40 93 -56
14 -6 61 -31 105 -56 44 -24 112 -60 150 -79 39 -20 77 -39 85 -44 8 -5 56
-28 105 -52 50 -23 98 -47 107 -51 10 -5 25 -9 33 -9 8 0 15 -4 15 -9 0 -5 24
-17 53 -27 28 -9 77 -30 107 -46 30 -16 66 -30 80 -33 14 -2 53 -18 88 -35 34
-16 69 -30 76 -30 8 0 36 -9 63 -21 51 -23 216 -81 298 -106 28 -8 97 -30 155
-48 182 -57 549 -147 705 -174 33 -5 114 -21 180 -35 116 -24 146 -28 285 -42
36 -3 67 -7 70 -9 3 -2 32 -6 65 -9 57 -6 79 -9 185 -21 155 -19 935 -27 1120
-12 52 4 136 10 185 12 134 8 199 14 315 30 58 8 132 16 165 19 33 3 69 7 80
9 20 5 196 41 245 51 14 2 70 14 125 26 55 12 134 28 175 36 41 8 122 28 180
45 58 16 112 31 120 34 8 2 35 11 60 20 61 22 185 55 207 55 10 0 30 6 44 14
14 7 38 16 55 20 16 4 53 19 83 32 76 35 127 53 194 70 32 8 119 44 192 79 74
36 142 65 151 65 9 0 46 14 81 30 34 17 68 30 73 30 6 0 10 4 10 9 0 12 123
71 148 71 11 0 22 3 24 8 2 4 29 20 62 36 32 16 64 35 70 42 15 14 111 64 125
64 13 0 123 66 148 89 26 24 77 51 98 51 9 0 23 6 30 13 23 19 36 29 99 72 80
54 76 52 117 70 20 9 45 24 55 33 46 43 127 102 139 102 7 0 26 11 41 24 74
63 158 126 168 126 6 0 46 32 89 70 43 39 84 70 92 70 7 0 38 25 67 56 29 30
65 62 80 70 15 7 46 33 71 56 61 60 116 108 122 108 15 0 576 572 600 612 5 9
34 41 62 72 29 31 61 69 70 84 10 15 33 43 53 63 19 20 41 45 48 57 l12 22
-999 0 -999 0 -16 -25z"/>
<path d="M18879 10063 c-13 -16 -12 -17 4 -4 9 7 17 15 17 17 0 8 -8 3 -21
-13z"/>
<path d="M22169 9917 c-38 -47 -100 -131 -143 -195 -16 -24 -34 -46 -40 -50
-16 -10 -76 -89 -76 -100 0 -5 -18 -27 -41 -48 -22 -22 -56 -61 -74 -89 -19
-27 -55 -70 -80 -94 -25 -24 -45 -47 -45 -52 0 -5 -28 -37 -62 -72 -35 -35
-79 -84 -98 -110 -19 -25 -39 -47 -43 -47 -5 0 -25 -19 -45 -41 -74 -84 -374
-379 -385 -379 -10 0 -107 -102 -107 -112 0 -4 -7 -8 -15 -8 -8 0 -15 -4 -15
-9 0 -5 -9 -13 -20 -16 -29 -9 -25 -19 18 -47 20 -14 51 -37 67 -52 17 -14 37
-26 45 -27 16 -1 25 -6 159 -96 51 -35 97 -63 103 -63 12 0 64 -35 98 -66 14
-13 53 -37 85 -54 33 -16 80 -46 105 -64 25 -19 49 -35 53 -35 5 -1 23 -12 40
-24 18 -13 52 -34 77 -47 25 -12 60 -35 77 -51 18 -16 58 -40 88 -54 30 -15
55 -31 55 -36 0 -5 5 -9 10 -9 6 0 51 -27 99 -60 49 -33 95 -60 104 -60 8 0
28 -13 45 -28 32 -30 97 -75 124 -85 9 -3 55 -32 103 -64 48 -32 113 -72 145
-88 32 -17 70 -42 84 -56 14 -14 50 -38 80 -53 31 -16 56 -31 56 -35 0 -3 22
-17 49 -30 28 -13 64 -36 82 -51 17 -16 57 -41 88 -57 31 -15 61 -33 66 -39
14 -16 123 -84 135 -84 6 0 10 -4 10 -8 0 -5 29 -23 65 -41 36 -18 70 -41 75
-51 5 -9 24 -23 42 -30 18 -7 89 -50 158 -95 69 -45 147 -92 173 -105 27 -14
52 -31 57 -40 5 -9 30 -26 57 -40 44 -22 212 -127 223 -139 7 -8 48 -31 101
-57 26 -13 49 -29 52 -37 3 -8 35 -29 71 -47 36 -19 66 -37 66 -42 0 -4 4 -8
10 -8 13 0 124 -71 128 -82 2 -4 8 -8 14 -8 5 0 29 -13 53 -30 24 -16 50 -30
57 -30 7 0 18 -8 25 -19 6 -10 41 -33 77 -51 36 -19 66 -37 66 -42 0 -5 12
-14 28 -20 32 -15 105 -60 113 -71 3 -4 23 -17 45 -28 21 -12 76 -45 120 -75
45 -30 86 -54 91 -54 5 0 18 -9 27 -19 10 -11 41 -31 69 -44 29 -14 63 -37 76
-51 14 -14 30 -26 38 -26 11 0 85 -46 268 -167 28 -18 55 -33 60 -33 6 0 32
-18 59 -40 26 -22 53 -40 60 -40 6 0 29 -12 51 -27 89 -61 268 -173 276 -173
4 0 24 -14 44 -31 20 -18 38 -29 41 -27 2 3 -2 11 -11 18 -8 7 -15 17 -15 22
0 11 -10 23 -78 96 -29 31 -67 77 -85 102 -17 25 -50 66 -75 91 -24 26 -55 64
-69 85 -15 22 -49 63 -77 92 -28 29 -55 62 -61 75 -5 13 -38 51 -72 86 -35 35
-63 69 -63 75 0 6 -34 47 -75 91 -41 44 -75 85 -75 91 0 6 -27 40 -61 75 -34
35 -76 87 -95 114 -19 28 -56 72 -84 100 -27 27 -50 55 -50 62 0 8 -31 46 -70
84 -38 39 -70 77 -70 83 0 7 -34 48 -75 91 -41 43 -75 84 -75 89 0 6 -31 45
-70 86 -38 41 -70 80 -70 85 0 6 -32 44 -70 85 -38 41 -70 80 -70 85 0 6 -34
46 -75 89 -41 43 -75 84 -75 91 0 6 -31 45 -70 85 -38 40 -70 77 -70 83 0 5
-28 39 -61 75 -34 37 -72 83 -84 102 -13 19 -51 64 -84 100 -33 36 -61 70 -61
75 0 6 -28 40 -62 75 -34 36 -70 80 -80 97 -10 18 -38 52 -63 75 -26 24 -56
59 -67 78 -12 19 -42 58 -68 85 -25 28 -59 68 -75 90 -37 49 -72 91 -105 125
-14 14 -37 43 -51 65 -14 22 -48 63 -74 90 -26 28 -59 67 -72 88 -13 21 -46
60 -73 86 -28 27 -50 53 -50 59 0 5 -26 38 -58 73 -32 35 -77 89 -99 119 -23
30 -62 77 -87 104 -25 26 -46 51 -46 53 0 7 -77 100 -110 134 -35 35 -60 68
-60 77 0 5 -25 33 -55 64 -30 30 -55 60 -55 65 0 5 -31 43 -70 85 -38 42 -70
81 -70 87 0 6 -9 16 -20 23 -11 7 -20 18 -20 25 0 6 -8 18 -18 25 -10 7 -56
60 -102 118 -46 58 -94 114 -107 125 -13 11 -23 26 -23 32 0 28 -30 19 -61
-20z"/>
<path d="M9142 9206 c-16 -17 -32 -38 -35 -47 -3 -9 -35 -59 -71 -113 -36 -53
-66 -99 -66 -102 0 -2 -16 -24 -35 -50 -19 -25 -35 -51 -35 -58 0 -7 -13 -27
-30 -44 -16 -17 -36 -46 -45 -64 -15 -33 -110 -176 -180 -272 -19 -27 -35 -54
-35 -60 0 -6 -14 -26 -30 -45 -17 -18 -30 -39 -30 -45 0 -6 -18 -35 -40 -64
-22 -29 -40 -54 -40 -57 0 -2 -25 -39 -55 -82 -31 -43 -64 -96 -75 -119 -11
-22 -28 -48 -39 -58 -11 -10 -32 -42 -47 -73 -16 -30 -36 -59 -46 -64 -10 -5
-18 -14 -18 -19 0 -13 -56 -104 -98 -159 -18 -24 -39 -59 -47 -77 -8 -19 -19
-34 -25 -34 -6 0 -16 -12 -22 -27 -18 -41 -61 -107 -75 -116 -7 -4 -20 -22
-28 -40 -21 -45 -53 -99 -63 -106 -14 -10 -69 -95 -76 -118 -4 -13 -12 -23
-17 -23 -5 0 -18 -20 -30 -45 -12 -25 -34 -59 -50 -76 -15 -17 -34 -42 -42
-57 -33 -63 -52 -97 -59 -102 -16 -12 -78 -106 -78 -118 0 -7 -9 -20 -20 -30
-11 -9 -30 -35 -40 -58 -11 -22 -34 -56 -50 -74 -17 -19 -30 -38 -30 -43 0 -6
-11 -25 -25 -43 -14 -18 -25 -40 -25 -48 0 -9 -4 -16 -10 -16 -10 0 -90 -113
-90 -129 0 -5 -6 -14 -13 -18 -7 -4 -23 -28 -35 -54 -12 -25 -35 -59 -52 -75
-16 -17 -34 -42 -39 -55 -14 -32 -50 -88 -83 -130 -14 -19 -36 -53 -48 -76
-12 -24 -25 -43 -29 -43 -4 0 -15 -17 -24 -39 -10 -21 -34 -58 -55 -82 -21
-24 -50 -70 -66 -101 -15 -31 -32 -58 -36 -60 -10 -4 -80 -107 -80 -118 0 -4
-7 -13 -14 -20 -8 -6 -24 -31 -35 -54 -12 -23 -37 -59 -56 -80 -19 -21 -35
-44 -35 -50 0 -6 -13 -29 -28 -52 -15 -22 -49 -74 -76 -115 -27 -41 -52 -76
-56 -79 -3 -3 -16 -25 -28 -50 -12 -25 -38 -62 -56 -83 -19 -20 -44 -59 -57
-85 -12 -26 -30 -56 -39 -67 -29 -34 -108 -153 -125 -190 -10 -19 -34 -54 -54
-77 -20 -24 -47 -62 -59 -86 -12 -24 -53 -87 -90 -140 -37 -53 -74 -111 -81
-129 -7 -18 -20 -38 -28 -44 -7 -7 -23 -26 -35 -42 l-21 -29 23 12 c28 15 43
26 81 61 48 45 106 89 117 89 6 0 15 6 19 13 4 7 42 40 83 72 41 33 79 66 83
72 4 7 14 13 21 13 8 0 41 26 74 58 33 32 76 66 96 77 20 11 57 41 82 67 26
27 61 55 78 63 18 9 58 40 91 70 32 30 67 57 77 61 10 3 18 10 18 15 0 5 4 9
9 9 9 0 57 39 125 103 22 20 45 37 51 37 7 0 46 32 89 70 42 39 82 70 89 70 6
0 42 29 78 64 37 35 83 72 103 81 20 10 36 21 36 26 0 4 33 33 73 63 120 93
140 109 188 154 25 23 51 42 58 42 13 0 60 40 105 89 17 18 46 40 65 48 19 8
58 39 88 69 29 30 69 62 87 69 19 8 41 23 48 32 16 22 134 123 143 123 9 0
100 75 137 113 15 15 33 27 40 27 7 0 47 32 88 70 41 39 84 73 95 77 11 3 40
25 65 48 58 56 106 95 115 95 8 0 127 101 138 117 4 7 23 20 41 28 19 9 62 43
96 75 34 32 74 63 88 69 15 6 51 36 80 66 30 30 68 62 85 70 18 8 61 42 95 74
35 32 75 65 90 72 14 8 35 23 47 34 11 11 40 36 64 55 23 19 49 41 56 48 8 6
17 12 22 12 5 0 33 23 63 51 30 28 75 64 100 80 25 16 65 49 90 72 25 23 65
55 89 71 24 16 54 38 65 50 12 13 64 55 116 95 52 40 102 81 110 90 9 10 40
34 70 55 30 21 75 56 100 79 45 42 105 87 114 87 3 0 22 17 43 38 20 20 60 53
89 72 64 43 160 130 143 130 -13 0 -118 67 -134 86 -5 6 -53 42 -105 79 -52
38 -105 78 -116 89 -12 12 -38 32 -59 46 -20 14 -60 45 -89 70 -28 25 -67 56
-86 69 -19 14 -57 46 -84 73 -26 26 -52 48 -56 48 -4 0 -43 34 -86 74 -154
146 -220 207 -266 248 -27 22 -48 47 -48 54 0 8 -4 14 -8 14 -10 0 -142 124
-142 133 0 4 -32 40 -71 79 -38 40 -88 91 -109 114 l-39 41 -29 -31z"/>
<path d="M20434 8129 c-21 -17 -41 -34 -44 -37 -3 -4 -22 -15 -42 -26 -20 -10
-61 -40 -91 -67 -30 -27 -75 -58 -99 -69 -23 -11 -70 -42 -102 -70 -32 -27
-75 -57 -95 -66 -50 -24 -134 -79 -151 -99 -17 -21 -64 -45 -87 -45 -10 0 -31
-12 -48 -26 -55 -45 -183 -124 -203 -124 -11 0 -42 -16 -68 -35 -27 -19 -64
-41 -81 -49 -41 -18 -42 -32 -4 -53 26 -16 40 -33 85 -106 9 -15 24 -31 33
-34 22 -9 74 -69 92 -106 8 -16 25 -34 38 -40 12 -5 25 -18 28 -29 4 -10 11
-18 16 -18 5 0 23 -19 40 -42 16 -24 49 -63 72 -88 24 -25 80 -89 126 -142 45
-54 87 -98 91 -98 5 0 11 -9 15 -19 3 -11 37 -52 76 -90 38 -39 69 -75 69 -81
0 -5 34 -43 75 -84 41 -41 75 -81 75 -89 0 -8 32 -42 70 -76 39 -35 70 -70 70
-80 0 -9 26 -40 59 -68 32 -28 66 -68 75 -87 9 -20 22 -36 29 -36 7 -1 46 -42
87 -92 41 -49 99 -115 128 -146 28 -31 52 -59 52 -63 0 -4 32 -39 70 -78 39
-39 70 -75 70 -80 0 -12 80 -101 91 -101 15 0 58 -53 59 -71 0 -9 32 -44 70
-78 39 -35 70 -70 70 -80 0 -17 29 -51 44 -51 9 0 66 -65 91 -104 11 -17 27
-37 37 -44 10 -8 41 -41 69 -75 28 -34 82 -96 119 -137 38 -41 91 -103 120
-137 28 -35 55 -63 60 -63 5 0 25 -24 43 -53 19 -28 54 -68 78 -88 24 -20 51
-49 59 -65 8 -16 41 -56 75 -89 33 -33 68 -75 78 -93 9 -19 26 -36 37 -39 11
-3 20 -8 20 -12 0 -10 51 -63 56 -58 3 3 -16 45 -41 95 -25 50 -45 95 -45 101
0 6 -4 11 -8 11 -5 0 -16 28 -26 63 -10 34 -47 121 -81 192 -35 72 -66 146
-70 165 -4 19 -38 99 -76 176 -38 78 -69 151 -69 163 0 21 -19 70 -39 101 -26
39 -101 208 -101 227 0 11 -13 48 -30 81 -16 34 -30 65 -30 70 0 5 -8 20 -18
33 -20 27 -64 132 -82 199 -7 24 -23 60 -36 79 -13 20 -24 39 -24 43 0 5 -18
45 -40 90 -22 46 -40 92 -40 104 0 18 -52 137 -80 184 -21 35 -52 107 -57 135
-3 17 -29 80 -58 140 -75 158 -83 175 -94 221 -6 23 -36 90 -66 150 -31 60
-60 127 -66 149 -12 45 -20 66 -95 221 -29 60 -57 128 -62 150 -9 37 -32 91
-51 124 -26 43 -81 171 -92 215 -7 28 -18 57 -24 65 -7 8 -22 40 -34 70 -13
30 -29 62 -36 70 -7 8 -18 33 -25 55 -21 65 -53 149 -60 158 -4 4 -24 -6 -46
-24z"/>
<path d="M11022 7614 c-7 -29 -19 -66 -27 -81 -8 -15 -15 -37 -15 -48 0 -11
-14 -56 -31 -100 -32 -83 -55 -151 -90 -270 -12 -38 -30 -95 -41 -125 -78
-224 -109 -320 -129 -400 -6 -25 -15 -49 -19 -55 -7 -9 -23 -53 -58 -160 -6
-16 -17 -55 -26 -85 -27 -98 -58 -195 -66 -205 -4 -5 -13 -28 -20 -50 -6 -22
-18 -54 -26 -72 -8 -17 -14 -39 -14 -49 0 -10 -6 -36 -14 -59 -8 -22 -22 -67
-32 -100 -9 -33 -21 -67 -26 -75 -14 -27 -59 -154 -68 -195 -16 -72 -115 -361
-131 -380 -4 -6 -15 -46 -24 -89 -14 -68 -90 -289 -116 -338 -5 -10 -14 -44
-20 -75 -6 -32 -22 -89 -36 -128 -14 -38 -38 -105 -54 -147 -15 -43 -33 -86
-38 -97 -6 -11 -11 -31 -11 -46 0 -32 -80 -272 -124 -370 -8 -16 -17 -50 -20
-75 -7 -48 -40 -152 -58 -184 -15 -29 -49 -129 -44 -133 2 -3 24 23 47 56 24
34 47 61 51 61 4 0 8 6 8 13 0 17 62 102 104 143 20 19 36 44 36 55 0 12 16
37 36 57 55 55 104 123 104 143 0 11 4 19 10 19 5 0 33 32 62 70 29 38 56 70
60 70 5 0 8 7 8 16 0 18 46 81 101 137 20 21 40 50 44 64 3 15 29 51 56 81 28
30 59 73 71 96 11 22 26 45 33 51 6 5 27 30 45 55 18 25 39 50 45 55 7 6 22
29 33 51 12 23 43 66 70 95 26 30 56 70 64 89 9 19 29 46 43 60 28 26 85 106
85 118 0 4 14 23 30 42 17 19 34 40 38 45 4 6 27 37 52 70 25 33 52 73 60 89
8 16 31 44 50 62 19 19 46 55 60 81 14 26 36 59 50 73 30 29 80 95 80 105 0 4
6 13 13 20 6 8 23 30 37 50 14 19 36 48 48 63 13 15 43 56 66 92 24 36 51 72
61 80 10 8 42 51 72 95 29 44 68 99 85 122 18 23 51 67 73 99 22 31 59 80 82
107 23 27 49 64 57 81 8 17 33 51 56 76 22 25 48 60 56 77 9 18 33 52 53 75
20 24 69 88 108 143 39 55 80 109 92 119 11 11 21 24 21 29 0 6 9 20 20 32
l21 22 -24 16 c-13 8 -42 20 -65 26 -22 6 -60 23 -84 36 -24 14 -51 25 -60 25
-9 0 -39 13 -65 28 -26 16 -68 36 -92 45 -24 10 -64 29 -90 42 -25 14 -52 25
-59 25 -8 0 -27 9 -42 20 -16 11 -58 34 -94 51 -36 17 -68 35 -71 39 -3 5 -19
11 -35 15 -17 4 -53 23 -82 42 -28 20 -70 44 -92 55 -72 35 -100 50 -171 97
-138 90 -138 90 -153 25z"/>
<path d="M18957 7223 c-5 -7 -21 -13 -37 -13 -17 0 -88 -30 -164 -70 -75 -38
-148 -70 -163 -70 -15 0 -50 -11 -78 -24 -172 -83 -251 -114 -325 -128 -30 -5
-60 -14 -65 -18 -10 -9 -118 -50 -235 -90 -30 -10 -86 -25 -125 -33 -38 -9
-108 -27 -155 -42 -47 -14 -103 -31 -125 -36 -22 -5 -57 -16 -78 -25 -21 -8
-64 -19 -95 -24 -97 -15 -247 -42 -250 -46 -2 -1 12 -33 32 -71 19 -37 40 -81
46 -96 5 -15 27 -54 48 -85 21 -31 46 -75 56 -97 42 -94 60 -129 90 -173 17
-26 39 -65 49 -87 41 -88 91 -182 112 -210 32 -43 55 -91 55 -114 0 -11 6 -26
14 -33 7 -8 21 -29 30 -46 9 -18 35 -60 56 -94 22 -34 40 -71 40 -83 0 -12 8
-33 18 -46 43 -57 132 -217 132 -237 0 -11 4 -23 9 -26 5 -4 26 -37 47 -74 20
-37 47 -81 60 -99 13 -17 24 -42 24 -55 0 -13 14 -43 31 -68 16 -25 41 -65 54
-90 12 -25 32 -56 44 -69 12 -13 21 -35 21 -49 0 -13 20 -55 45 -92 25 -37 45
-72 45 -77 0 -5 11 -24 25 -43 14 -19 25 -41 25 -51 0 -20 12 -43 63 -121 20
-31 37 -60 37 -63 0 -4 9 -19 19 -34 11 -15 23 -40 27 -57 4 -16 31 -67 61
-114 29 -46 59 -99 65 -117 7 -18 16 -33 20 -33 4 0 8 -7 8 -16 0 -19 37 -90
61 -119 10 -11 41 -69 70 -130 29 -60 70 -135 91 -166 21 -31 38 -60 38 -63 0
-17 54 -122 100 -195 27 -45 50 -86 50 -92 0 -15 74 -151 111 -206 16 -23 29
-46 29 -52 0 -12 32 -84 41 -91 4 -3 19 -29 34 -59 14 -29 35 -63 46 -74 10
-12 19 -28 19 -37 0 -8 20 -51 45 -94 25 -44 45 -81 45 -83 0 -3 14 -24 30
-48 17 -24 30 -50 30 -57 0 -8 7 -23 15 -34 8 -10 15 -25 15 -32 0 -8 8 -26
19 -40 39 -56 131 -226 131 -243 0 -7 10 -26 23 -43 32 -42 117 -201 117 -218
0 -8 13 -32 29 -54 33 -45 131 -230 131 -248 0 -7 9 -22 20 -34 11 -11 29 -40
41 -64 11 -24 27 -54 35 -68 8 -14 26 -49 39 -78 44 -96 82 -127 56 -46 -6 16
-12 45 -15 64 -2 19 -9 58 -15 85 -17 82 -22 107 -30 175 -5 36 -18 112 -29
170 -11 58 -26 141 -32 185 -7 44 -13 85 -14 90 -2 6 -8 37 -15 70 -34 163
-41 195 -50 255 -6 36 -18 108 -27 160 -9 52 -19 113 -21 135 -2 22 -11 76
-19 120 -31 156 -32 164 -38 183 -3 10 -8 31 -10 47 -2 17 -14 77 -26 135 -12
58 -24 121 -26 140 -2 19 -7 51 -10 70 -3 19 -7 60 -10 90 -3 30 -9 73 -14 95
-5 22 -12 54 -15 70 -2 17 -9 53 -15 80 -6 28 -12 59 -14 70 -2 11 -20 99 -39
195 -20 96 -38 209 -42 250 -5 64 -14 116 -39 245 -11 53 -56 273 -61 300 -28
128 -36 179 -41 240 -5 61 -21 167 -39 245 -3 14 -8 39 -10 55 -15 85 -37 193
-45 220 -5 17 -11 46 -13 65 -3 19 -9 55 -15 80 -17 73 -31 160 -37 235 -4 39
-20 138 -37 220 -16 83 -32 161 -35 175 -2 14 -13 66 -23 115 -11 50 -22 106
-25 125 -3 19 -10 55 -15 80 -5 25 -14 90 -20 145 -10 91 -38 247 -60 335 -5
19 -11 49 -14 65 -4 28 -30 158 -43 215 -3 14 -8 48 -12 75 -4 31 -9 45 -14
38z"/>
<path d="M12689 6853 c-1 -16 -2 -39 -4 -53 -1 -14 -5 -72 -9 -130 -4 -58 -9
-116 -11 -130 -2 -14 -7 -70 -10 -125 -4 -55 -8 -116 -10 -135 -2 -19 -7 -80
-10 -135 -3 -55 -8 -111 -10 -125 -2 -14 -7 -70 -10 -125 -4 -55 -8 -118 -10
-140 -2 -22 -6 -96 -10 -165 -6 -133 -11 -235 -19 -365 -3 -44 -8 -141 -11
-215 -3 -74 -7 -146 -9 -160 -3 -14 -7 -76 -11 -138 -3 -62 -8 -122 -10 -135
-2 -12 -6 -69 -10 -126 -3 -57 -8 -118 -10 -135 -2 -17 -6 -69 -10 -116 -3
-47 -8 -116 -11 -155 -3 -38 -7 -95 -9 -125 -10 -137 -16 -217 -20 -245 -3
-16 -7 -109 -10 -205 -6 -215 -14 -398 -20 -465 -7 -88 -15 -188 -20 -260 -3
-38 -7 -95 -10 -125 -3 -30 -7 -93 -11 -140 -3 -47 -7 -101 -9 -120 -2 -19 -6
-80 -10 -135 -4 -55 -9 -113 -10 -130 -1 -16 -6 -73 -9 -125 -4 -52 -9 -111
-11 -130 -2 -19 -6 -93 -10 -165 -6 -127 -10 -214 -20 -385 -2 -47 -7 -143
-10 -215 -3 -71 -7 -141 -9 -155 -4 -24 -8 -65 -21 -280 -4 -52 -8 -101 -10
-108 -3 -6 -2 -12 0 -12 6 0 32 62 56 135 25 73 28 80 73 177 34 72 63 148 88
228 5 19 26 69 45 110 19 41 43 93 53 115 10 22 26 67 36 100 9 33 21 67 25
75 34 65 90 198 109 260 13 41 46 125 75 185 29 61 55 128 59 150 4 22 21 69
38 105 17 36 45 97 63 135 18 39 36 88 40 110 4 22 24 76 45 120 67 141 89
195 96 232 6 33 21 68 114 268 15 33 30 76 33 95 3 19 21 69 40 110 82 176 95
207 100 240 3 19 21 69 41 111 20 42 36 81 36 87 0 7 4 12 9 12 5 0 12 13 16
30 4 16 11 32 16 35 5 4 9 19 9 35 0 28 13 62 80 205 43 93 60 136 60 156 0 9
13 46 29 81 16 35 48 103 70 152 23 49 41 99 41 112 0 21 15 58 101 242 17 34
33 82 38 105 4 23 25 78 45 122 21 44 51 107 66 141 16 33 32 78 36 100 3 21
23 75 44 119 74 157 89 193 96 231 4 22 30 89 59 149 29 61 60 137 70 170 18
63 22 72 80 200 51 115 51 114 71 180 9 33 34 95 55 138 25 52 34 79 26 82
-12 3 -70 11 -167 20 -30 3 -61 8 -68 10 -7 3 -50 8 -95 11 -45 3 -107 10
-137 15 -30 6 -68 12 -85 14 -16 2 -52 9 -80 15 -27 6 -102 19 -165 29 -63 11
-159 31 -214 45 -54 14 -108 26 -121 26 -13 0 -53 9 -90 21 -38 11 -75 22 -84
24 -81 17 -198 47 -224 58 -17 8 -72 24 -122 37 -49 13 -109 31 -133 42 -24
10 -53 18 -65 18 -12 0 -35 7 -51 15 -42 22 -56 19 -57 -12z"/>
<path d="M16560 6514 c-45 -5 -210 -25 -233 -30 -21 -4 -135 -12 -277 -19 -58
-4 -118 -8 -135 -11 -16 -2 -176 -7 -355 -11 -179 -3 -326 -6 -327 -7 -1 -1 2
-18 7 -37 10 -34 25 -125 36 -209 4 -25 35 -160 69 -300 35 -140 66 -284 70
-320 4 -36 11 -81 15 -100 5 -19 11 -46 14 -60 8 -38 45 -191 56 -230 28 -97
60 -252 60 -288 0 -23 14 -94 30 -159 17 -65 33 -129 36 -143 2 -14 23 -95 44
-181 22 -86 40 -176 40 -201 0 -39 21 -141 50 -248 35 -126 94 -390 106 -470
7 -52 15 -102 17 -110 2 -8 28 -121 59 -250 31 -129 62 -269 68 -310 15 -98
26 -149 85 -386 20 -82 41 -174 46 -204 4 -30 10 -64 13 -75 2 -11 5 -23 5
-27 1 -5 5 -8 10 -8 5 0 12 30 16 68 4 37 9 81 11 97 2 17 6 53 9 81 3 28 7
60 9 70 2 11 7 53 11 94 4 41 9 82 10 90 3 16 11 81 21 169 3 30 7 62 9 72 2
10 6 60 10 111 3 51 8 112 11 136 3 24 7 81 9 127 4 85 12 179 20 225 3 14 7
50 10 80 4 30 8 69 10 85 2 17 6 57 10 90 4 33 9 73 11 90 3 16 7 52 9 80 3
27 7 66 10 85 2 19 7 53 9 75 3 22 7 58 10 80 3 22 8 69 12 105 3 36 8 68 9
71 2 3 5 59 6 125 1 65 10 184 19 264 10 80 21 174 25 210 4 36 8 72 10 80 1
8 6 44 10 80 3 36 8 76 10 90 4 23 23 186 30 251 1 14 5 50 9 80 10 83 13 124
20 254 6 105 10 155 21 265 1 14 5 43 8 65 4 22 9 67 12 100 3 33 10 90 15
127 5 36 13 103 16 147 7 90 14 82 -66 75z"/>
</g>
</svg>
